<svg width="18" height="15" viewBox="0 0 18 15" fill="none" xmlns="http://www.w3.org/2000/svg">
<path d="M7.2839 1.38297L7.87239 0.574462L7.87239 0.574463L7.2839 1.38297ZM4.48992 1.82302L3.68141 1.23453L3.68141 1.23453L4.48992 1.82302ZM7.72395 4.17696L6.91544 3.58847L6.91544 3.58847L7.72395 4.17696ZM6.30849 6.12163V7.12163C5.9323 7.12163 5.58793 6.9105 5.41729 6.57524C5.24664 6.23997 5.2786 5.83731 5.49998 5.53315L6.30849 6.12163ZM6.30849 8.12163L5.49998 8.71012C5.2786 8.40596 5.24664 8.00329 5.41729 7.66803C5.58793 7.33276 5.93229 7.12163 6.30849 7.12163V8.12163ZM7.72395 10.0663L6.91544 10.6548L6.91544 10.6548L7.72395 10.0663ZM7.2839 12.8603L6.69542 12.0518L6.69542 12.0518L7.2839 12.8603ZM4.48992 12.4202L5.29843 11.8318L5.29843 11.8318L4.48992 12.4202ZM1.50908 8.32494L2.30779 7.72321C2.31109 7.7276 2.31436 7.73201 2.31759 7.73645L1.50908 8.32494ZM1.10686 7.12245L0.106864 7.12327V7.12245H1.10686ZM1.10686 7.12082L0.106864 7.12082L0.106864 7.12L1.10686 7.12082ZM1.50909 5.91832L2.3176 6.5068C2.31437 6.51124 2.3111 6.51566 2.30779 6.52005L1.50909 5.91832ZM6.69542 2.19148C6.24889 1.86647 5.62344 1.96498 5.29843 2.4115L3.68141 1.23453C4.65644 -0.105047 6.53281 -0.40057 7.87239 0.574462L6.69542 2.19148ZM6.91544 3.58847C7.24045 3.14195 7.14195 2.51649 6.69542 2.19148L7.87239 0.574463C9.21197 1.5495 9.50749 3.42586 8.53246 4.76544L6.91544 3.58847ZM5.49998 5.53315L6.91544 3.58847L8.53246 4.76544L7.117 6.71012L5.49998 5.53315ZM16 7.12163H6.30849V5.12163H16V7.12163ZM16 7.12163V5.12163C17.1046 5.12163 18 6.01706 18 7.12163H16ZM16 7.12163H18C18 8.2262 17.1046 9.12163 16 9.12163V7.12163ZM6.30849 7.12163H16V9.12163H6.30849V7.12163ZM6.91544 10.6548L5.49998 8.71012L7.117 7.53315L8.53246 9.47783L6.91544 10.6548ZM6.69542 12.0518C7.14195 11.7268 7.24045 11.1013 6.91544 10.6548L8.53246 9.47783C9.50749 10.8174 9.21197 12.6938 7.87239 13.6688L6.69542 12.0518ZM5.29843 11.8318C5.62344 12.2783 6.24889 12.3768 6.69542 12.0518L7.87239 13.6688C6.53281 14.6438 4.65644 14.3483 3.68141 13.0087L5.29843 11.8318ZM2.31759 7.73645L5.29843 11.8318L3.68141 13.0087L0.700576 8.91342L2.31759 7.73645ZM2.10686 7.12164C2.10704 7.33599 2.17591 7.54816 2.30779 7.72321L0.710379 8.92666C0.312132 8.39804 0.107386 7.76218 0.106864 7.12327L2.10686 7.12164ZM2.10686 7.12082V7.12245H0.106864V7.12082H2.10686ZM2.30779 6.52005C2.17591 6.6951 2.10704 6.90727 2.10686 7.12163L0.106864 7.12C0.107386 6.48109 0.312136 5.84521 0.710392 5.31659L2.30779 6.52005ZM5.29843 2.4115L2.3176 6.5068L0.700585 5.32983L3.68141 1.23453L5.29843 2.4115Z" fill="#808080"/>
</svg>
