<svg width="31" height="20" viewBox="0 0 31 20" fill="none" xmlns="http://www.w3.org/2000/svg">
<path d="M27.5124 1.24646L28.1698 2L28.1698 2L27.5124 1.24646ZM28.9233 1.34259L28.1698 2L28.1698 2L28.9233 1.34259ZM18.6251 9L19.2825 9.75354C19.1003 9.91245 18.8668 10 18.6251 10V9ZM18.6251 11V10C18.8668 10 19.1003 10.0876 19.2825 10.2465L18.6251 11ZM27.5124 18.7535L28.1698 18L28.1698 18L27.5124 18.7535ZM28.9233 18.6574L28.1698 18L28.1698 18L28.9233 18.6574ZM28.8272 17.2465L28.1698 18L28.1698 18L28.8272 17.2465ZM21.6673 11L21.0099 11.7535C20.6958 11.4795 20.5846 11.0393 20.731 10.649C20.8773 10.2586 21.2505 10 21.6673 10V11ZM21.6673 9V10C21.2505 10 20.8773 9.74139 20.731 9.35104C20.5846 8.9607 20.6958 8.52052 21.0099 8.24646L21.6673 9ZM28.8272 2.75354L28.1698 2L28.1698 2L28.8272 2.75354ZM26.855 0.492927C27.6873 -0.233224 28.9507 -0.147146 29.6769 0.685188L28.1698 2L28.1698 2L26.855 0.492927ZM17.9677 8.24646L26.855 0.492927L28.1698 2L19.2825 9.75354L17.9677 8.24646ZM2.18867 8H18.6251V10H2.18867V8ZM0.188667 10C0.188667 8.89543 1.0841 8 2.18867 8V10H0.188667ZM2.18867 12C1.0841 12 0.188667 11.1046 0.188667 10H2.18867V12ZM18.6251 12H2.18867V10H18.6251V12ZM19.2825 10.2465L28.1698 18L26.855 19.5071L17.9677 11.7535L19.2825 10.2465ZM28.1698 18L28.1698 18L29.6769 19.3148C28.9507 20.1471 27.6873 20.2332 26.855 19.5071L28.1698 18ZM28.1698 18L28.1698 18L29.4846 16.4929C30.3169 17.2191 30.403 18.4825 29.6769 19.3148L28.1698 18ZM28.1698 18L21.0099 11.7535L22.3248 10.2465L29.4846 16.4929L28.1698 18ZM27.6604 12H21.6673V10H27.6604V12ZM29.6604 10C29.6604 11.1046 28.7649 12 27.6604 12V10H29.6604ZM27.6604 8C28.7649 8 29.6604 8.89543 29.6604 10H27.6604V8ZM21.6673 8H27.6604V10H21.6673V8ZM29.4846 3.50707L22.3248 9.75354L21.0099 8.24646L28.1698 2L29.4846 3.50707ZM29.6769 0.685187C30.403 1.51752 30.3169 2.78092 29.4846 3.50707L28.1698 2L28.1698 2L29.6769 0.685187Z" fill="#222F5A"/>
</svg>
