<svg width="31" height="20" viewBox="0 0 31 20" fill="none" xmlns="http://www.w3.org/2000/svg">
<path d="M3.48761 1.24646L2.8302 2L2.8302 2L3.48761 1.24646ZM2.07666 1.34259L2.8302 2L2.8302 2L2.07666 1.34259ZM12.3749 9L11.7175 9.75354C11.8997 9.91245 12.1332 10 12.3749 10V9ZM12.3749 11V10C12.1332 10 11.8997 10.0876 11.7175 10.2465L12.3749 11ZM3.48761 18.7535L2.8302 18H2.8302L3.48761 18.7535ZM2.07666 18.6574L2.8302 18L2.8302 18L2.07666 18.6574ZM2.17279 17.2465L2.8302 18H2.8302L2.17279 17.2465ZM9.33266 11L9.99006 11.7535C10.3042 11.4795 10.4154 11.0393 10.269 10.649C10.1227 10.2586 9.74953 10 9.33266 10V11ZM9.33266 9V10C9.74953 10 10.1227 9.74139 10.269 9.35104C10.4154 8.9607 10.3042 8.52052 9.99006 8.24646L9.33266 9ZM2.17279 2.75354L2.8302 2L2.8302 2L2.17279 2.75354ZM4.14501 0.492927C3.31268 -0.233224 2.04928 -0.147146 1.32313 0.685188L2.8302 2L2.8302 2L4.14501 0.492927ZM13.0323 8.24646L4.14501 0.492927L2.8302 2L11.7175 9.75354L13.0323 8.24646ZM28.8113 8H12.3749V10H28.8113V8ZM30.8113 10C30.8113 8.89543 29.9159 8 28.8113 8V10H30.8113ZM28.8113 12C29.9159 12 30.8113 11.1046 30.8113 10H28.8113V12ZM12.3749 12H28.8113V10H12.3749V12ZM11.7175 10.2465L2.8302 18L4.14501 19.5071L13.0323 11.7535L11.7175 10.2465ZM2.8302 18L2.8302 18L1.32313 19.3148C2.04928 20.1471 3.31268 20.2332 4.14501 19.5071L2.8302 18ZM2.8302 18L2.8302 18L1.51539 16.4929C0.683053 17.2191 0.596977 18.4825 1.32313 19.3148L2.8302 18ZM2.8302 18L9.99006 11.7535L8.67525 10.2465L1.51539 16.4929L2.8302 18ZM3.33963 12H9.33266V10H3.33963V12ZM1.33963 10C1.33963 11.1046 2.23506 12 3.33963 12V10H1.33963ZM3.33963 8C2.23506 8 1.33963 8.89543 1.33963 10H3.33963V8ZM9.33266 8H3.33963V10H9.33266V8ZM1.51539 3.50707L8.67525 9.75354L9.99006 8.24646L2.8302 2L1.51539 3.50707ZM1.32313 0.685187C0.596977 1.51752 0.683054 2.78092 1.51539 3.50707L2.8302 2L2.8302 2L1.32313 0.685187Z" fill="#222F5A"/>
</svg>
