<svg
    width="21"
    height="17"
    viewBox="0 0 21 17"
    fill="none"
    xmlns="http://www.w3.org/2000/svg"
>
    <g clip-path="url(#clip0)">
    <path
        d="M7.5 2C3.35786 2 0 5.35786 0 9.5C0 13.6421 3.35786 17 7.5 17C11.6421 17 15 13.6421 15 9.5"
        stroke="#068DC9"
        stroke-width="2"
        stroke-linecap="round"
    />
    <path
        d="M10.911 7C10.8523 7 10.8017 6.98133 10.759 6.944C10.7217 6.90667 10.703 6.85867 10.703 6.8V6.232C10.703 6.072 10.7697 5.94133 10.903 5.84L11.735 5.024C12.2203 4.65067 12.5883 4.36 12.839 4.152C13.0897 3.944 13.279 3.75467 13.407 3.584C13.535 3.41333 13.599 3.25067 13.599 3.096C13.599 2.67467 13.391 2.464 12.975 2.464C12.7563 2.464 12.5883 2.53067 12.471 2.664C12.3537 2.792 12.2763 2.95467 12.239 3.152C12.207 3.27467 12.1163 3.336 11.967 3.336H10.967C10.919 3.336 10.879 3.32 10.847 3.288C10.815 3.256 10.799 3.216 10.799 3.168C10.8097 2.82667 10.903 2.51467 11.079 2.232C11.2603 1.944 11.5137 1.71733 11.839 1.552C12.1697 1.38133 12.5483 1.296 12.975 1.296C13.423 1.296 13.807 1.368 14.127 1.512C14.447 1.656 14.6897 1.85867 14.855 2.12C15.0203 2.38133 15.103 2.68533 15.103 3.032C15.103 3.40533 14.9857 3.74667 14.751 4.056C14.5217 4.36 14.1697 4.69067 13.695 5.048L12.959 5.792H15.015C15.0737 5.792 15.1217 5.81067 15.159 5.848C15.2017 5.88533 15.223 5.93333 15.223 5.992V6.8C15.223 6.85867 15.2017 6.90667 15.159 6.944C15.1217 6.98133 15.0737 7 15.015 7H10.911ZM18.6511 7C18.5977 7 18.5497 6.98133 18.5071 6.944C18.4697 6.90133 18.4511 6.85333 18.4511 6.8V5.896H15.9631C15.9044 5.896 15.8564 5.87733 15.8191 5.84C15.7817 5.80267 15.7631 5.75467 15.7631 5.696V4.936C15.7631 4.856 15.7924 4.77333 15.8511 4.688L18.1791 1.536C18.2537 1.44533 18.3524 1.4 18.4751 1.4H19.6431C19.7017 1.4 19.7497 1.41867 19.7871 1.456C19.8244 1.49333 19.8431 1.54133 19.8431 1.6V4.704H20.5471C20.6111 4.704 20.6617 4.72533 20.6991 4.768C20.7364 4.80533 20.7551 4.85067 20.7551 4.904V5.696C20.7551 5.75467 20.7364 5.80267 20.6991 5.84C20.6617 5.87733 20.6137 5.896 20.5551 5.896H19.8431V6.8C19.8431 6.85333 19.8244 6.90133 19.7871 6.944C19.7497 6.98133 19.7017 7 19.6431 7H18.6511ZM18.4831 4.76V2.872L17.1391 4.76H18.4831Z"
        fill="#068DC9"
    />
    <path
        d="M7 6V9C7 9.55228 7.44772 10 8 10H10"
        stroke="#068DC9"
        stroke-width="2"
        stroke-linecap="round"
        stroke-linejoin="round"
    />
    </g>
    <defs>
    <clipPath id="clip0">
        <rect width="21" height="17" fill="white" />
    </clipPath>
    </defs>
</svg>