<?xml version="1.0" encoding="utf-8"?>
<svg width="30px" height="30px" viewBox="0 0 30 30" version="1.1" xmlns:xlink="http://www.w3.org/1999/xlink" xmlns="http://www.w3.org/2000/svg">
  <desc>Created with Lunacy</desc>
  <defs>
    <path d="M15 30C23.2843 30 30 23.2843 30 15C30 6.71573 23.2843 0 15 0C6.71573 0 0 6.71573 0 15C0 23.2843 6.71573 30 15 30Z" id="path_1" />
    <clipPath id="clip_1">
      <use xlink:href="#path_1" />
    </clipPath>
  </defs>
  <g id="Affordable-Icon">
    <g id="Oval">
      <g clip-path="url(#clip_1)">
        <use xlink:href="#path_1" fill="none" stroke="#000000" stroke-width="6" />
      </g>
    </g>
    <path d="M5.95745 15C7.22459 15 8.31678 14.8148 9.23404 14.4444C10.1513 14.0741 10.8416 13.5648 11.305 12.9167C11.7683 12.2685 12 11.5463 12 10.75C12 9.67593 11.6265 8.7963 10.8794 8.11111C10.1324 7.42593 8.86052 6.89815 7.06383 6.52778C5.91017 6.28704 5.04019 6.05093 4.4539 5.81944C3.86761 5.58796 3.47045 5.33796 3.26241 5.06944C3.05437 4.80093 2.95035 4.47222 2.95035 4.08333C2.95035 3.4537 3.19622 2.94907 3.68794 2.56944C4.17967 2.18981 4.88889 2 5.8156 2C6.43972 2 6.95981 2.06944 7.37589 2.20833C7.79196 2.34722 8.10875 2.51389 8.32624 2.70833C8.54374 2.90278 8.81324 3.17593 9.13475 3.52778C9.24823 3.73148 9.43735 3.83333 9.70213 3.83333L9.70213 3.83333L10.7801 3.83333C10.9504 3.83333 11.0969 3.77778 11.2199 3.66667C11.3428 3.55556 11.4043 3.41667 11.4043 3.25C11.4043 2.89815 11.1915 2.46296 10.766 1.94444C10.3404 1.42593 9.70686 0.972222 8.86525 0.583333C8.02364 0.194444 7.00709 0 5.8156 0C4.68085 0 3.70213 0.199074 2.87943 0.597222C2.05674 0.99537 1.43735 1.51389 1.02128 2.15278C0.605201 2.79167 0.397163 3.4537 0.397163 4.13889C0.397163 5.19444 0.737589 6.05556 1.41844 6.72222C2.09929 7.38889 3.26241 7.89815 4.9078 8.25C6.1182 8.50926 7.03073 8.75 7.64539 8.97222C8.26005 9.19444 8.69976 9.44444 8.96454 9.72222C9.22931 10 9.3617 10.3704 9.3617 10.8333C9.3617 11.537 9.05437 12.0741 8.43972 12.4444C7.82506 12.8148 7.00709 13 5.98582 13C5.07801 13 4.35461 12.8519 3.8156 12.5556C3.2766 12.2593 2.7896 11.8519 2.35461 11.3333C2.24113 11.2037 2.1513 11.1204 2.08511 11.0833C2.01891 11.0463 1.92908 11.0278 1.8156 11.0278L1.8156 11.0278L0.624113 11.0278C0.472813 11.0278 0.330969 11.0787 0.198582 11.1806C0.0661938 11.2824 0 11.4259 0 11.6111C0 11.963 0.217494 12.4074 0.652482 12.9444C1.08747 13.4815 1.75414 13.9583 2.65248 14.375C3.55083 14.7917 4.65248 15 5.95745 15Z" transform="translate(9 7)" id="s" fill="#000000" stroke="none" />
    <path d="M0.999 0L1.001 0Q1.09939 0 1.1959 0.0191955Q1.2924 0.038391 1.3833 0.0760443Q1.4742 0.113698 1.55601 0.168362Q1.63783 0.223026 1.7074 0.2926Q1.77697 0.362175 1.83164 0.443985Q1.8863 0.525796 1.92396 0.616699Q1.96161 0.707602 1.9808 0.804105Q2 0.900607 2 0.999L2 18.001Q2 18.0994 1.9808 18.1959Q1.96161 18.2924 1.92396 18.3833Q1.8863 18.4742 1.83164 18.556Q1.77697 18.6378 1.7074 18.7074Q1.63783 18.777 1.55601 18.8316Q1.4742 18.8863 1.3833 18.924Q1.2924 18.9616 1.1959 18.9808Q1.09939 19 1.001 19L0.999 19Q0.900607 19 0.804105 18.9808Q0.707602 18.9616 0.616699 18.924Q0.525796 18.8863 0.443985 18.8316Q0.362175 18.777 0.2926 18.7074Q0.223026 18.6378 0.168362 18.556Q0.113698 18.4742 0.0760443 18.3833Q0.038391 18.2924 0.0191955 18.1959Q0 18.0994 0 18.001L0 0.999Q0 0.900607 0.0191955 0.804105Q0.038391 0.707602 0.0760443 0.616699Q0.113698 0.525796 0.168362 0.443985Q0.223026 0.362175 0.2926 0.2926Q0.362175 0.223026 0.443985 0.168362Q0.525796 0.113698 0.616699 0.0760443Q0.707602 0.038391 0.804105 0.0191955Q0.900607 0 0.999 0Z" transform="translate(14 5)" id="Rectangle" fill="#000000" stroke="none" />
  </g>
</svg>