<?xml version="1.0" encoding="utf-8"?>
<svg width="18px" height="18px" viewBox="0 0 18 18" version="1.1" xmlns:xlink="http://www.w3.org/1999/xlink" xmlns="http://www.w3.org/2000/svg">
  <desc>Created with Lunacy</desc>
  <path d="M16 0C17.1046 0 18 0.89543 18 2L18 16C18 17.1046 17.1046 18 16 18L2 18C0.89543 18 0 17.1046 0 16L0 2C0 0.89543 0.89543 0 2 0L16 0ZM8 2L2 2L2 8L8 8L8 2ZM8 10L2 10L2 16L8 16L8 10ZM10 16L10 10L16 10L16 16L10 16Z" id="Combined-Shape" fill="#222F5A" fill-rule="evenodd" stroke="none" />
</svg>