<?xml version="1.0" encoding="utf-8"?>
<svg width="60px" height="60px" viewBox="0 0 60 60" version="1.1" xmlns:xlink="http://www.w3.org/1999/xlink" xmlns="http://www.w3.org/2000/svg">
  <desc>Created with Lunacy</desc>
  <defs>
    <filter filterUnits="userSpaceOnUse" color-interpolation-filters="sRGB" id="filter_1">
      <feFlood flood-opacity="0" result="BackgroundImageFix" />
      <feColorMatrix in="SourceAlpha" type="matrix" values="0 0 0 0 0 0 0 0 0 0 0 0 0 0 0 0 0 0 127 0" />
      <feOffset dx="7" dy="7" />
      <feGaussianBlur stdDeviation="7.5" />
      <feColorMatrix type="matrix" values="0 0 0 0 0.9098039 0 0 0 0 0.23529412 0 0 0 0 0.22745098 0 0 0 0.2 0" />
      <feBlend mode="normal" in2="BackgroundImageFix" result="effect0_dropShadow" />
      <feBlend mode="normal" in="SourceGraphic" in2="effect0_dropShadow" result="shape" />
    </filter>
    <path d="M15 23.7973C17.1243 23.7973 19.1455 23.447 20.9768 22.8153C22.4522 22.3063 26.0779 26.8305 27.8879 25.8642C29.8828 24.7991 26.5376 19.5521 27.1777 18.8475C28.9537 16.8924 30 14.4925 30 11.8986C30 5.32721 23.2843 0 15 0C6.71573 0 0 5.32721 0 11.8986C0 18.4701 6.71573 23.7973 15 23.7973Z" transform="translate(16 19)" id="path_1" />
    <clipPath id="clip_1">
      <use xlink:href="#path_1" />
    </clipPath>
  </defs>
  <g id="Buttons-/-Chatbot">
    <g filter="url(#filter_1)">
      <path d="M29.999 0L30.001 0Q30.7374 0 31.473 0.0361351Q32.2085 0.0722702 32.9414 0.144453Q33.6743 0.216636 34.4028 0.324694Q35.1312 0.432751 35.8535 0.576422Q36.5758 0.720093 37.2902 0.899032Q38.0045 1.07797 38.7093 1.29175Q39.414 1.50552 40.1074 1.75362Q40.8007 2.00172 41.4811 2.28354Q42.1615 2.56536 42.8272 2.88022Q43.493 3.19509 44.1424 3.54224Q44.7919 3.8894 45.4236 4.268Q46.0552 4.6466 46.6676 5.05574Q47.2799 5.46488 47.8714 5.90358Q48.4629 6.34227 49.0322 6.80946Q49.6014 7.27665 50.1471 7.77121Q50.6928 8.26577 51.2135 8.7865Q51.7342 9.30724 52.2288 9.8529Q52.7234 10.3986 53.1905 10.9678Q53.6577 11.5371 54.0964 12.1286Q54.5351 12.7201 54.9443 13.3324Q55.3534 13.9448 55.732 14.5764Q56.1106 15.2081 56.4578 15.8576Q56.8049 16.507 57.1198 17.1728Q57.4346 17.8385 57.7165 18.5189Q57.9983 19.1993 58.2464 19.8926Q58.4945 20.586 58.7083 21.2908Q58.922 21.9955 59.101 22.7098Q59.2799 23.4242 59.4236 24.1465Q59.5672 24.8688 59.6753 25.5972Q59.7834 26.3257 59.8555 27.0586Q59.9277 27.7915 59.9639 28.527Q60 29.2626 60 29.999L60 55.001Q60 55.1237 59.994 55.2463Q59.988 55.3689 59.9759 55.491Q59.9639 55.6131 59.9459 55.7345Q59.9279 55.8559 59.9039 55.9763Q59.88 56.0966 59.8502 56.2157Q59.8204 56.3347 59.7847 56.4521Q59.7491 56.5696 59.7078 56.6851Q59.6664 56.8006 59.6195 56.914Q59.5725 57.0274 59.52 57.1383Q59.4676 57.2493 59.4097 57.3575Q59.3519 57.4657 59.2888 57.571Q59.2257 57.6763 59.1575 57.7783Q59.0893 57.8803 59.0162 57.9789Q58.9431 58.0775 58.8653 58.1723Q58.7874 58.2672 58.705 58.3581Q58.6226 58.4491 58.5358 58.5358Q58.4491 58.6226 58.3581 58.705Q58.2672 58.7874 58.1723 58.8653Q58.0775 58.9431 57.9789 59.0162Q57.8803 59.0893 57.7783 59.1575Q57.6763 59.2257 57.571 59.2888Q57.4657 59.3519 57.3575 59.4097Q57.2493 59.4676 57.1383 59.52Q57.0274 59.5725 56.914 59.6195Q56.8006 59.6664 56.6851 59.7078Q56.5696 59.7491 56.4521 59.7847Q56.3347 59.8204 56.2157 59.8502Q56.0966 59.88 55.9763 59.9039Q55.8559 59.9279 55.7345 59.9459Q55.6131 59.9639 55.491 59.9759Q55.3689 59.988 55.2463 59.994Q55.1237 60 55.001 60L29.999 60Q29.2626 60 28.527 59.9639Q27.7915 59.9277 27.0586 59.8555Q26.3257 59.7834 25.5972 59.6753Q24.8688 59.5672 24.1465 59.4236Q23.4242 59.2799 22.7098 59.101Q21.9955 58.922 21.2907 58.7083Q20.586 58.4945 19.8926 58.2464Q19.1993 57.9983 18.5189 57.7165Q17.8385 57.4346 17.1728 57.1198Q16.507 56.8049 15.8576 56.4578Q15.2081 56.1106 14.5764 55.732Q13.9448 55.3534 13.3324 54.9443Q12.7201 54.5351 12.1286 54.0964Q11.5371 53.6577 10.9678 53.1905Q10.3986 52.7234 9.8529 52.2288Q9.30724 51.7342 8.7865 51.2135Q8.26577 50.6928 7.77121 50.1471Q7.27665 49.6014 6.80946 49.0322Q6.34227 48.4629 5.90358 47.8714Q5.46488 47.2799 5.05574 46.6675Q4.6466 46.0552 4.268 45.4236Q3.8894 44.7919 3.54224 44.1424Q3.19509 43.493 2.88022 42.8272Q2.56536 42.1615 2.28354 41.4811Q2.00172 40.8007 1.75362 40.1074Q1.50552 39.414 1.29175 38.7092Q1.07797 38.0045 0.899032 37.2902Q0.720093 36.5758 0.576422 35.8535Q0.432751 35.1312 0.324694 34.4028Q0.216636 33.6743 0.144453 32.9414Q0.0722702 32.2085 0.0361351 31.473Q0 30.7374 0 30.001L0 29.999Q0 29.2626 0.0361351 28.527Q0.0722702 27.7915 0.144453 27.0586Q0.216636 26.3257 0.324694 25.5972Q0.432751 24.8688 0.576422 24.1465Q0.720093 23.4242 0.899032 22.7098Q1.07797 21.9955 1.29175 21.2907Q1.50552 20.586 1.75362 19.8926Q2.00172 19.1993 2.28354 18.5189Q2.56536 17.8385 2.88022 17.1728Q3.19509 16.507 3.54224 15.8576Q3.8894 15.2081 4.268 14.5764Q4.6466 13.9448 5.05574 13.3324Q5.46488 12.7201 5.90358 12.1286Q6.34227 11.5371 6.80946 10.9678Q7.27665 10.3986 7.77121 9.8529Q8.26577 9.30724 8.7865 8.7865Q9.30724 8.26577 9.8529 7.77121Q10.3986 7.27665 10.9678 6.80946Q11.5371 6.34227 12.1286 5.90358Q12.7201 5.46488 13.3324 5.05574Q13.9448 4.6466 14.5764 4.268Q15.2081 3.8894 15.8576 3.54224Q16.507 3.19509 17.1728 2.88022Q17.8385 2.56536 18.5189 2.28354Q19.1993 2.00172 19.8926 1.75362Q20.586 1.50552 21.2908 1.29175Q21.9955 1.07797 22.7098 0.899032Q23.4242 0.720093 24.1465 0.576422Q24.8688 0.432751 25.5972 0.324694Q26.3257 0.216636 27.0586 0.144453Q27.7915 0.0722702 28.527 0.0361351Q29.2626 0 29.999 0Z" id="Rectangle" fill="#E83C3A" stroke="none" />
    </g>
    <g id="Oval">
      <g clip-path="url(#clip_1)">
        <use xlink:href="#path_1" fill="none" stroke="#FFFFFF" stroke-width="4" />
      </g>
    </g>
    <path d="M2 4C3.10457 4 4 3.10457 4 2C4 0.895431 3.10457 0 2 0C0.895431 0 0 0.895431 0 2C0 3.10457 0.895431 4 2 4Z" transform="translate(29 29)" id="Oval" fill="#FFFFFF" stroke="none" />
    <path d="M2 4C3.10457 4 4 3.10457 4 2C4 0.895431 3.10457 0 2 0C0.895431 0 0 0.895431 0 2C0 3.10457 0.895431 4 2 4Z" transform="translate(22 29)" id="Oval-Copy" fill="#FFFFFF" stroke="none" />
    <path d="M2 4C3.10457 4 4 3.10457 4 2C4 0.895431 3.10457 0 2 0C0.895431 0 0 0.895431 0 2C0 3.10457 0.895431 4 2 4Z" transform="translate(36 29)" id="Oval-Copy-2" fill="#FFFFFF" stroke="none" />
  </g>
</svg>