<?xml version="1.0" encoding="UTF-8"?>
<svg width="40px" height="40px" viewBox="0 0 40 40" version="1.1" xmlns="http://www.w3.org/2000/svg" xmlns:xlink="http://www.w3.org/1999/xlink">
    <title>Alfred智能櫃 – We Deliver, You Collect.</title>
    <g id="Welcome" stroke="none" stroke-width="1" fill="none" fill-rule="evenodd">
        <g id="200624_Alfred_SignUp_DesktopHD_2" transform="translate(-310.000000, -128.000000)">
            <g id="Group-3" transform="translate(100.000000, 128.000000)">
                <g id="Group-6" transform="translate(210.000000, 0.000000)">
                    <path d="M5,0 L20,0 C31.045695,-2.02906125e-15 40,8.954305 40,20 L40,35 C40,37.7614237 37.7614237,40 35,40 L20,40 C8.954305,40 1.3527075e-15,31.045695 0,20 L0,5 C-3.38176876e-16,2.23857625 2.23857625,5.07265313e-16 5,0 Z" id="Rectangle-Copy" fill="#068DC9"></path>
                    <path d="M26,23 L16,23 C14.8954305,23 14,22.1045695 14,21 L14,17 L14,17" id="Path" stroke="#FFFFFF" stroke-width="2" stroke-linecap="round" transform="translate(20.000000, 20.000000) rotate(-45.000000) translate(-20.000000, -20.000000) "></path>
                </g>
            </g>
        </g>
    </g>
</svg>