<?xml version="1.0" encoding="UTF-8"?>
<svg width="22px" height="30px" viewBox="0 0 22 30" version="1.1" xmlns="http://www.w3.org/2000/svg" xmlns:xlink="http://www.w3.org/1999/xlink">
    <title>Alfred智能櫃 – We Deliver, You Collect.</title>
    <g id="Welcome" stroke="none" stroke-width="1" fill="none" fill-rule="evenodd">
        <g id="200903_Alfred_About_DesktopHD" transform="translate(-423.000000, -1126.000000)" stroke="#000000" stroke-width="3">
            <g id="Group-19" transform="translate(172.000000, 1083.000000)">
                <g id="Benefit-1" transform="translate(39.000000, 43.000000)">
                    <path d="M226.302994,2 L218.66784,2 C218.218494,2 217.824327,2.29971603 217.704223,2.73271252 L214.351519,14.8197782 C214.203901,15.3519691 214.515658,15.9030637 215.047849,16.0506825 C215.134892,16.0748266 215.224806,16.0870657 215.315136,16.0870657 L219.693715,16.0870657 C220.246,16.0870657 220.693715,16.5347809 220.693715,17.0870657 C220.693715,17.158549 220.68605,17.2298263 220.670852,17.2996753 L218.394193,27.7630237 C218.335482,28.0328527 218.506628,28.2991866 218.776457,28.3578971 C218.967439,28.3994518 219.165125,28.3259157 219.282521,28.1696493 L231.704974,11.6340291 C232.036699,11.1924672 231.947658,10.5655943 231.506097,10.2338691 C231.332885,10.1037433 231.1221,10.0333875 230.905455,10.0333875 L225.570714,10.0333875 C225.018429,10.0333875 224.570714,9.5856723 224.570714,9.03338755 C224.570714,8.88069083 224.605682,8.73002205 224.672938,8.59293464 L227.200769,3.44045291 C227.444025,2.94462507 227.239274,2.34547971 226.743446,2.10222428 C226.606359,2.03496857 226.45569,2 226.302994,2 Z" id="Path-3"></path>
                </g>
            </g>
        </g>
    </g>
</svg>