<?xml version="1.0" encoding="utf-8"?>
<svg width="30px" height="30px" viewBox="0 0 30 30" version="1.1" xmlns:xlink="http://www.w3.org/1999/xlink" xmlns="http://www.w3.org/2000/svg">
  <desc>Created with Lunacy</desc>
  <path d="M24.1504 9.08685C24.1504 3.51071 20.6152 0 15 0C9.38487 0 5.84961 3.51071 5.84961 9.08685C5.84961 10.6989 6.2745 12.4759 6.97686 14.1877L1.76491 14.8778C0.651736 15.0252 -0.130351 16.0409 0.0180725 17.1463L1.50855 28.2473L1.54295 28.4355C1.77966 29.4565 2.77382 30.1381 3.83333 29.9762L14.6908 28.3174C14.8957 28.2861 15.1043 28.2861 15.3092 28.3174L26.1667 29.9762L26.3583 29.9964C27.4115 30.0581 28.3498 29.3025 28.4915 28.2473L29.9819 17.1463C30.1304 16.0409 29.3483 15.0252 28.2351 14.8778L23.0232 14.1877C23.7255 12.4759 24.1504 10.6989 24.1504 9.08685ZM8.89974 9.08685C8.89974 5.18355 11.0694 3.02895 15 3.02895C18.9306 3.02895 21.1003 5.18355 21.1003 9.08685C21.1003 11.0964 20.1248 13.7907 18.5824 16.0311C17.2037 18.0336 15.6872 19.1834 15 19.1834C14.3129 19.1834 12.7963 18.0336 11.4177 16.0311C9.87519 13.7907 8.89974 11.0964 8.89974 9.08685ZM18.0502 9.08681C18.0502 10.7597 16.6846 12.1158 15.0001 12.1158C13.3155 12.1158 11.95 10.7597 11.95 9.08681C11.95 7.41397 13.3155 6.05786 15.0001 6.05786C16.6846 6.05786 18.0502 7.41397 18.0502 9.08681ZM3.17565 17.7466L8.44588 17.0486C10.2776 19.9811 12.7891 22.2123 15 22.2123C17.2109 22.2123 19.7224 19.9811 21.5541 17.0487L26.8233 17.7466L25.6053 26.8254L15.773 25.3237L15.4647 25.2861C15.0525 25.2485 14.6369 25.2611 14.227 25.3237L4.39367 26.8254L3.17565 17.7466Z" id="Convenient-Icon" fill="#000000" fill-rule="evenodd" stroke="none" />
</svg>