<?xml version="1.0" encoding="utf-8"?>
<svg width="20px" height="20px" viewBox="0 0 20 20" version="1.1" xmlns:xlink="http://www.w3.org/1999/xlink" xmlns="http://www.w3.org/2000/svg">
  <desc>Created with Lunacy</desc>
  <path d="M10 0C15.5228 0 20 4.47715 20 10C20 15.5228 15.5228 20 10 20C4.47715 20 0 15.5228 0 10C0 4.47715 4.47715 0 10 0ZM10 2C5.58172 2 2 5.58172 2 10C2 14.4183 5.58172 18 10 18C14.4183 18 18 14.4183 18 10C18 5.58172 14.4183 2 10 2ZM7.43791 9.77584C7.04539 9.46502 6.47355 9.49092 6.11092 9.85355C5.72039 10.2441 5.72039 10.8772 6.11092 11.2678L7.52513 12.682L7.63455 12.7836C8.4203 13.4614 9.60801 13.4275 10.3536 12.682L13.8891 9.14644L13.9668 9.05922C14.2776 8.6667 14.2517 8.09486 13.8891 7.73223C13.4986 7.3417 12.8654 7.3417 12.4749 7.73223L8.93934 11.2678L7.52513 9.85355L7.43791 9.77584Z" id="Combined-Shape" fill="#068DC9" fill-rule="evenodd" stroke="none" />
</svg>