<?xml version="1.0" encoding="UTF-8"?>
<svg width="30px" height="30px" viewBox="0 0 30 30" version="1.1" xmlns="http://www.w3.org/2000/svg" xmlns:xlink="http://www.w3.org/1999/xlink">
    <title>Alfred智能櫃 – We Deliver, You Collect.</title>
    <g id="Welcome" stroke="none" stroke-width="1" fill="none" fill-rule="evenodd">
        <g id="201019_Alfred_Couriers_DesktopHD" transform="translate(-646.000000, -2309.000000)" fill="#000000" fill-rule="nonzero">
            <g id="Group-5" transform="translate(0.000000, 1847.000000)">
                <g id="Group-3" transform="translate(263.000000, 417.000000)">
                    <path d="M401.446738,61.3363696 L401.56066,61.4393398 L410,69.879 L410,63.5 C410,62.7203039 410.594888,62.0795513 411.35554,62.0068666 L411.5,62 C412.279696,62 412.920449,62.5948881 412.993133,63.35554 L413,63.5 L413,73 C413,74.1045695 412.104569,75 411,75 L401.5,75 C400.671573,75 400,74.3284271 400,73.5 C400,72.7203039 400.594888,72.0795513 401.35554,72.0068666 L401.5,72 L407.879,72 L399.43934,63.5606602 C398.853553,62.9748737 398.853553,62.0251263 399.43934,61.4393398 C399.988515,60.890165 400.857577,60.8558416 401.446738,61.3363696 Z M394.5,45 C395.328427,45 396,45.6715729 396,46.5 C396,47.2796961 395.405112,47.9204487 394.64446,47.9931334 L394.5,48 L388.121,48 L396.56066,56.4393398 C397.146447,57.0251263 397.146447,57.9748737 396.56066,58.5606602 C396.011485,59.109835 395.142423,59.1441584 394.553262,58.6636304 L394.43934,58.5606602 L386,50.121 L386,56.5 C386,57.2796961 385.405112,57.9204487 384.64446,57.9931334 L384.5,58 C383.720304,58 383.079551,57.4051119 383.006867,56.64446 L383,56.5 L383,47 C383,45.8954305 383.895431,45 385,45 L394.5,45 Z" id="Combined-Shape" transform="translate(398.000000, 60.000000) scale(-1, 1) translate(-398.000000, -60.000000) "></path>
                </g>
            </g>
        </g>
    </g>
</svg>