<?xml version="1.0" encoding="utf-8"?>
<svg width="20px" height="12px" viewBox="0 0 20 12" version="1.1" xmlns:xlink="http://www.w3.org/1999/xlink" xmlns="http://www.w3.org/2000/svg">
  <desc>Created with Lunacy</desc>
  <defs>
    <path d="M18.001 0L9.999 0Q9.90079 0 9.80306 0.00962573Q9.70533 0.0192515 9.60901 0.0384102Q9.5127 0.057569 9.41872 0.0860763Q9.32474 0.114584 9.23401 0.152165Q9.14329 0.189746 9.05668 0.236039Q8.97007 0.282333 8.88841 0.336892Q8.80676 0.391452 8.73085 0.453752Q8.65493 0.516052 8.58549 0.585494Q8.51605 0.654935 8.45375 0.730848Q8.39145 0.806761 8.33689 0.888415Q8.28233 0.970069 8.23604 1.05668Q8.18974 1.14329 8.15216 1.23402Q8.11458 1.32474 8.08608 1.41872Q8.05757 1.5127 8.03841 1.60901Q8.01925 1.70533 8.00963 1.80306Q8 1.9008 8 1.999L8 10.001Q8 10.0992 8.00963 10.1969Q8.01925 10.2947 8.03841 10.391Q8.05757 10.4873 8.08608 10.5813Q8.11458 10.6753 8.15216 10.766Q8.18974 10.8567 8.23604 10.9433Q8.28233 11.0299 8.33689 11.1116Q8.39145 11.1932 8.45375 11.2692Q8.51605 11.3451 8.58549 11.4145Q8.65493 11.4839 8.73085 11.5462Q8.80676 11.6085 8.88841 11.6631Q8.97007 11.7177 9.05668 11.764Q9.14329 11.8103 9.23401 11.8478Q9.32474 11.8854 9.41872 11.9139Q9.5127 11.9424 9.60901 11.9616Q9.70533 11.9807 9.80306 11.9904Q9.90079 12 9.999 12L18.001 12Q18.0992 12 18.1969 11.9904Q18.2947 11.9807 18.391 11.9616Q18.4873 11.9424 18.5813 11.9139Q18.6753 11.8854 18.766 11.8478Q18.8567 11.8103 18.9433 11.764Q19.0299 11.7177 19.1116 11.6631Q19.1932 11.6085 19.2692 11.5462Q19.3451 11.4839 19.4145 11.4145Q19.4839 11.3451 19.5462 11.2692Q19.6085 11.1932 19.6631 11.1116Q19.7177 11.0299 19.764 10.9433Q19.8103 10.8567 19.8478 10.766Q19.8854 10.6753 19.9139 10.5813Q19.9424 10.4873 19.9616 10.391Q19.9807 10.2947 19.9904 10.1969Q20 10.0992 20 10.001L20 1.999Q20 1.9008 19.9904 1.80306Q19.9807 1.70533 19.9616 1.60901Q19.9424 1.5127 19.9139 1.41872Q19.8854 1.32474 19.8478 1.23402Q19.8103 1.14329 19.764 1.05668Q19.7177 0.970069 19.6631 0.888415Q19.6085 0.806761 19.5462 0.730848Q19.4839 0.654935 19.4145 0.585494Q19.3451 0.516052 19.2692 0.453752Q19.1932 0.391452 19.1116 0.336892Q19.0299 0.282333 18.9433 0.236039Q18.8567 0.189746 18.766 0.152165Q18.6753 0.114584 18.5813 0.0860763Q18.4873 0.057569 18.391 0.0384102Q18.2947 0.0192515 18.1969 0.00962573Q18.0992 0 18.001 0ZM6.001 2L4.999 2Q4.90061 2 4.8041 2.0192Q4.7076 2.03839 4.6167 2.07604Q4.5258 2.1137 4.44398 2.16836Q4.36217 2.22303 4.2926 2.2926Q4.22303 2.36217 4.16836 2.44398Q4.1137 2.5258 4.07604 2.6167Q4.03839 2.7076 4.0192 2.8041Q4 2.90061 4 2.999L4 3.001Q4 3.09939 4.0192 3.19589Q4.03839 3.2924 4.07604 3.3833Q4.1137 3.4742 4.16836 3.55601Q4.22303 3.63783 4.2926 3.7074Q4.36217 3.77697 4.44398 3.83164Q4.5258 3.8863 4.6167 3.92396Q4.7076 3.96161 4.8041 3.9808Q4.90061 4 4.999 4L6.001 4Q6.09939 4 6.19589 3.9808Q6.2924 3.96161 6.3833 3.92396Q6.4742 3.8863 6.55601 3.83164Q6.63782 3.77697 6.7074 3.7074Q6.77697 3.63783 6.83164 3.55601Q6.8863 3.4742 6.92395 3.3833Q6.96161 3.2924 6.9808 3.19589Q7 3.09939 7 3.001L7 2.999Q7 2.90061 6.9808 2.8041Q6.96161 2.7076 6.92395 2.6167Q6.8863 2.5258 6.83164 2.44399Q6.77697 2.36217 6.7074 2.2926Q6.63782 2.22303 6.55601 2.16836Q6.4742 2.1137 6.3833 2.07604Q6.2924 2.03839 6.19589 2.0192Q6.09939 2 6.001 2ZM2.999 5L6.001 5Q6.09939 5 6.19589 5.0192Q6.2924 5.03839 6.3833 5.07604Q6.4742 5.1137 6.55601 5.16836Q6.63782 5.22303 6.7074 5.2926Q6.77697 5.36217 6.83164 5.44399Q6.8863 5.5258 6.92395 5.6167Q6.96161 5.7076 6.9808 5.8041Q7 5.90061 7 5.999L7 6.001Q7 6.09939 6.9808 6.19589Q6.96161 6.2924 6.92395 6.3833Q6.8863 6.4742 6.83164 6.55601Q6.77697 6.63782 6.7074 6.7074Q6.63782 6.77697 6.55601 6.83164Q6.4742 6.8863 6.3833 6.92395Q6.2924 6.96161 6.19589 6.9808Q6.09939 7 6.001 7L2.999 7Q2.90061 7 2.8041 6.9808Q2.7076 6.96161 2.6167 6.92395Q2.5258 6.8863 2.44399 6.83164Q2.36217 6.77697 2.2926 6.7074Q2.22303 6.63782 2.16836 6.55601Q2.1137 6.4742 2.07604 6.3833Q2.03839 6.2924 2.0192 6.19589Q2 6.09939 2 6.001L2 5.999Q2 5.90061 2.0192 5.8041Q2.03839 5.7076 2.07604 5.6167Q2.1137 5.5258 2.16836 5.44399Q2.22303 5.36217 2.2926 5.2926Q2.36217 5.22303 2.44398 5.16836Q2.5258 5.1137 2.6167 5.07604Q2.7076 5.03839 2.8041 5.0192Q2.90061 5 2.999 5ZM6.001 8L0.999 8Q0.900607 8 0.804105 8.0192Q0.707602 8.03839 0.616699 8.07604Q0.525796 8.1137 0.443985 8.16836Q0.362175 8.22303 0.2926 8.2926Q0.223026 8.36217 0.168362 8.44398Q0.113698 8.52579 0.0760443 8.6167Q0.038391 8.7076 0.0191955 8.8041Q0 8.90061 0 8.999L0 9.001Q0 9.09939 0.0191955 9.19589Q0.038391 9.2924 0.0760443 9.3833Q0.113698 9.4742 0.168362 9.55602Q0.223026 9.63783 0.2926 9.7074Q0.362175 9.77697 0.443985 9.83164Q0.525796 9.8863 0.616699 9.92395Q0.707602 9.96161 0.804105 9.9808Q0.900607 10 0.999 10L6.001 10Q6.09939 10 6.19589 9.9808Q6.2924 9.96161 6.3833 9.92395Q6.4742 9.8863 6.55601 9.83164Q6.63782 9.77697 6.7074 9.7074Q6.77697 9.63783 6.83164 9.55602Q6.8863 9.4742 6.92395 9.3833Q6.96161 9.2924 6.9808 9.19589Q7 9.09939 7 9.001L7 8.999Q7 8.90061 6.9808 8.8041Q6.96161 8.7076 6.92395 8.6167Q6.8863 8.52579 6.83164 8.44398Q6.77697 8.36217 6.7074 8.2926Q6.63782 8.22303 6.55601 8.16836Q6.4742 8.1137 6.3833 8.07604Q6.2924 8.03839 6.19589 8.0192Q6.09939 8 6.001 8Z" id="path_1" />
    <clipPath id="clip_1">
      <use xlink:href="#path_1" />
    </clipPath>
  </defs>
  <g id="transit-copy">
    <g id="Combined-Shape">
      <g clip-path="url(#clip_1)">
        <use xlink:href="#path_1" fill="none" stroke="#222F5A" stroke-width="4" />
      </g>
    </g>
    <path d="M0 0L1 0L1 2L0 2L0 0Z" transform="translate(5 2)" id="Rectangle" fill="#222F5A" stroke="none" />
  </g>
</svg>