<?xml version="1.0" encoding="utf-8"?>
<svg width="14px" height="18px" viewBox="0 0 14 18" version="1.1" xmlns:xlink="http://www.w3.org/1999/xlink" xmlns="http://www.w3.org/2000/svg">
  <desc>Created with Lunacy</desc>
  <path d="M7 0C10.866 0 14 2.91016 14 6.50002C14 10.0899 10.0009 18 7 18C3.99915 18 0 10.0899 0 6.50002C0 2.91016 3.13401 0 7 0ZM7 2C4.20682 2 2 4.0492 2 6.50002C2 9.55837 5.65029 16 7 16C8.34971 16 12 9.55837 12 6.50002C12 4.0492 9.79318 2 7 2ZM9 7C9 8.10457 8.10457 9 7 9C5.89543 9 5 8.10457 5 7C5 5.89543 5.89543 5 7 5C8.10457 5 9 5.89543 9 7Z" id="Combined-Shape" fill="#FFFFFF" fill-rule="evenodd" stroke="none" />
</svg>