<svg xmlns="http://www.w3.org/2000/svg" xmlns:xlink="http://www.w3.org/1999/xlink" width="1440" height="400" viewBox="0 0 1440 400" style="background:#fff">
    <defs>
        <filter id="ai2isgmhkc" width="100%" height="100%" x="0%" y="0%" filterUnits="objectBoundingBox">
            <feGaussianBlur in="SourceGraphic"/>
        </filter>
        <filter id="292lkxg7yd" width="100%" height="100%" x="0%" y="0%" filterUnits="objectBoundingBox">
            <feGaussianBlur in="SourceGraphic"/>
        </filter>
        <filter id="mjmx6sc4qe" width="100%" height="100%" x="0%" y="0%" filterUnits="objectBoundingBox">
            <feGaussianBlur in="SourceGraphic"/>
        </filter>
        <path id="prgh3hfwza" d="M0 0L1440 0 1440 400 0 400z"/>
    </defs>
    <g fill="none" fill-rule="evenodd">
        <g>
            <g transform="translate(-194 -1047) translate(194 1047)">
                <mask id="8dvuslpbqb" fill="#fff">
                    <use xlink:href="#prgh3hfwza"/>
                </mask>
                <use fill="#000" fill-opacity=".03" xlink:href="#prgh3hfwza"/>
                <path fill="#000" fill-opacity=".03" d="M1393.122 144L1377 136.732 1418.004 41 1437 50.071 1393.122 144zM1426 164.152L1383.488 264 1348 248.78l46.414-98.78L1426 164.152zm14 128.784l-19.357 31.781L1389.31 329l-2.31-59 53 22.936zM1389.55 372l-1.55-40.123 28-3.877-26.45 44zm1.45 105.362L1312.327 532 1309 510.172 1342.853 455l46.624 1.66 1.523 20.702zm3 70.156L1359.923 550 1358 513.651 1390.02 490l3.98 57.518zm24-90.596L1394.277 474 1393 456l25 .922zM1317.516 552l-.516-8.556L1355.197 516l1.803 33.202-39.484 2.798zM1302 553l10.587-7 .413 6.28-11 .72zm-17-3l22.15-36 2.85 18.68-25 17.32zm-16.17 13L1267 452l31.8 1.167 8.2 55.315-28.34 47.497-9.83 7.021zM1266 348.834l33.87-4.834 2.13 97-34.533-1.294-1.467-90.872zM1264 247l33.976 1.33 2.024 90.82-34.414 4.85-1.586-97zm-3-14.196L1314.128 115 1349 130.728 1297.264 246l-36.07-1.37-.194-11.826zM1258.261 215c-5.822-20.135-17.168-59.13-29.261-99.497L1266.904 94 1306 111.28 1258.261 215zM1217 439.535l.552-.12v-83.032l37.433-5.383 1.015 90-39-1.465zm-4-86.521L1168.455 359 1167 286.439 1191.715 246l21.285.78v106.234zM1212 437l-43-35.461v-38.485l43-6.054v80zm-43.57 27l-.43-48 36 31.733L1168.43 464zm-15.617-162L1102 263.184 1125.789 225 1186 245.759 1152.813 302zm-25.656 177L1109 382.952l5.844-9.952 48.66 39.622.496 50.814L1127.157 479zm-44.06 19L1071 448.042 1107.18 387l17.82 93.454L1083.097 498zM1046 490.903L1068.19 454l10.81 44-33-7.097zm-2.898-.903L1027 486.332 1062.608 429l4.392 18.935L1043.102 490zm-21.757-5L971 473.875l56.764-91.846L1093 373l-71.655 112zm-55.866-11L953 471.14l25.37-81.197L1022 384l-56.521 90zm-21.652-5L890 456.56l17.26-57.218L968 391l-24.173 78zm-12.832 43L878 495.012 889.29 458 944 470.504 930.995 512zm-56.87-17L824 478.836 852.742 384l48.066 15.929.388.13 1.804-.247L874.125 495zm-53.786-18L777 462.963 806.878 368 849 382.021 820.339 477zm-11.896 38c-3.886-5.697-12.855-15.987-24.847-11.917-1.072.363-2.199.777-3.354 1.224.52-6.206 1.308-19.588-1.066-23.78C777.555 477.66 777.081 469.8 777 465l42 13.997L808.443 515zm-17.195 59L763 564.434l16.549-53.849c1.793-.715 3.511-1.358 5.108-1.889 11.665-3.872 20.476 9.531 22.343 12.655L791.248 574zm-33.13-10L725 552.494c.906-7.48 1.966-15.279 2.555-18.386l12.67 2.172 4.727-10.217C747.727 524.47 761.664 516.54 774 511l-15.883 53zm-35.768-13L679 536.547 686.54 512 725 533.217c-.503 2.245-1.3 7.065-2.65 17.783zm-47.616-17L637 521.412l17.424-56.628-2.224-11.281c8.39-8.947 15.45-16.639 19.888-21.503L703 441.95 674.734 534zm-40.932-12L598 510.006c15.813-14.577 35.58-35.08 51.447-52.006l1.553 7.891L633.802 522zm-13.332 45L556 546.22c8.574-8.284 17.138-15.876 24.253-20.787 4.065-2.81 9.237-7.137 15.063-12.433L633 525.74 620.47 567zM522 564l33.055-107.043.675.607L668.99 323l4.928 2.244L719 363.382l-49.169 54.963-43.164-43.569-2.513 2.655 43.233 43.642c-9.06 10.083-71.152 78.841-93.824 94.446C557.98 526.242 536.633 548.144 522 564zm-66-54.426L471.668 472 533 495.944 519.997 537 456 509.574zm-3.122-.574L376 474.573V401l104 41.467L452.878 509zm-28.029 69l-20.604-8.25L375 479l77 33.296L424.85 578zM310 531.728L363.893 385.7 366.06 384l4.625 1.674v88.719l-.99.174L399 568l-89-36.272zm-8.812-2.774l-29.441-11.986 22.177-21.512-2.46-2.705L238.624 544 215 515.522 348 402l-46.812 126.954zM285.954 567L240 545.149 267.532 518 299 531.024 285.954 567zm-77.546 5L167 555.193 212.157 517 236 545.478 208.408 572zM83 519.9l20.898-49.9L195 509.533l-9.903 25.132L163.657 553 83 519.9zm-24-72.208L75.585 408 110 423.977 93.852 463 59 447.692zm-41-17.201L35.126 389 72 406.307 55.185 447 18 430.49zM66.253 313L103 332.431 72.802 402 35 385.106 66.253 313zM40 277.484L56.414 241 88 259.2 66.596 309c-4.599-3.672-17.175-14.642-26.596-31.516zM36.958 274c-6.357-13.336-10.58-29.856-8.36-49L52 239.08 36.958 274zm-1.174-76.095c5.908-13.727 11.408-26.389 16.445-37.905L82 172.928 54.054 235 29 220.575c1.21-7.207 3.385-14.775 6.784-22.67zM83.621 87L113 100.864 82.448 170 53 156.97C69.61 118.336 80.73 93.436 83.62 87zm33.936 16L148 117.32 118.904 186 87 171.928 117.557 103zm39.683-91L186 25.45 148.23 114 118 99.881 157.24 12zm54.362-82L225-63.87 191.19 14 162 .592 211.602-70zm21.512-33L280-82.166 230.414 34 193 16.487l33.953-79.666.713-1.678-15.784-7.36L233.114-103zm51.53 22L322-64.492 272.206 52 235 34.678 284.643-81zm39.05 19L357-47.313 314.52 49 282 35.327 323.694-62zm35.448 15L394-31.459 353.294 65 317 49.58 359.142-47zm39.517 18L432-14.101 391.809 82 358 67.596 398.66-29zm36.667 17L470 3.837 392.78 193H349l86.326-205zM461 113.827L420.692 202 395 191.76 430.942 105 461 113.827zm7.542 9.173L533 151.801 495.36 241 429 211.02 468.542 123zm46.63-99L544 36.847 505.038 127 475 113.557 515.172 24zm20.92-53l15.472 7.017L558-4.587 542.617 32 515 19.344 536.092-29zm9.482-18l16.48 8.682L567-40.78 558.04-21l-1.753-4.463L539-32.835 545.574-47zm37.985-1.305L607.012-103 636-88.41 578.3 48 548 34.55l16.63-38.318-4.185-10.961 12.314-28.034 10.8-5.542zM638.164-88L665-77.41 613.66 63 581 48.37 638.164-88zM688-68.214L664.957-10 648-17.41 668.82-76 688-68.214zM692.062-67L736-48.456l-1.314 2.563L707.069 10 668-6.889 692.062-67zm53.623 26.793L747.657-44 811-21.857 742.484 121 679 92.535l66.685-132.742zM773.844-98L835-74.535 810.93-25 747-47.067 773.844-98zm64.88 24L914-46.356 889.255 3l-41.787-14.918 8.01-27.254-3.427-1.12-7.987 27.159L815-23.507 838.724-74zM964-28.957L940.874 20 892 2.82 916.86-46 964-28.957zm16.665 5.788L983 35l-38-13.72L967.658-28l13.007 4.831zM987 82.226l-6.29 3.984-.54.34-.44.45L927 60.44 944.257 24l40.92 14.34L987 82.226zm46.803-84.984c1.15 3.054 2.272 6.024 3.357 8.903l-26.577 15.49 1.824 3.213 26.078-15.204c5.599 14.785 10.155 26.584 12.515 32.665L1033.787 53l-46.375-15.927L985-20l48.803 17.242zM1107.585 64l9.415 63.986-69 9.014 9.08-66.14 50.505-6.86zm-45.9-19.629L1101.805 15 1108 57.31 1059 64l2.685-19.629zM1140.078-10L1151 53.71 1111.533 59 1105 15.21 1140.078-10zm17.903-24c8.167 7.56 14.699 13.213 17.633 15.272 3.123 5.027 11.653 31.286 22.386 66.87L1155.36 54 1144-13.933 1157.981-34zm22.225-31.356c2.961-1.817 13.463-8.017 26.2-12.644L1241 34.642 1208.605 44c-21.373-68.775-24.477-70.576-27.064-72.069-2.29-1.328-8.978-6.98-17.541-14.746l16.206-22.54zm53.31-18.425c4.299 0 10.361-.003 17.558-.219L1274-27.756l-27.722 62.504-.892.252L1210-79.514c7.583-2.476 15.755-4.267 23.516-4.267zM1299-91l-23.936 58L1255-85.91c12.614-.524 28.268-1.84 44-5.09zm51.92-20l3.08 1.416L1313.154-14 1277-31.117l26.766-60.814c17.177-3.694 34.104-9.613 47.155-19.069zM1396-89.527L1352.567 6 1317-10.853 1358.063-107 1396-89.527zm9.976 6.527L1440-67.137 1397.022 29 1363 12.682 1405.976-83zm-45.01 98L1395 31.423 1352.535 127 1318 111.26 1360.965 15zm-46.378-22L1350 9.87 1306.53 106 1273 90.916 1314.588-7zM1246 37.067l2.415-.71L1275.875-27 1312-9.628l-41.436 98.48-3.716-1.687-4.866 2.835L1246 37.067zm-19.372 68.443c-6.48-22.155-11.964-40.578-16.628-55.914L1242.665 40 1259 94.204 1228.524 112c-.63-2.162-1.262-4.327-1.896-6.49zm-92.115 105.203l.364-.577-11.877-78.8L1219.746 119l1.254 4.206-31.016 115.273-.917 1.521-60.249-20.339 5.695-8.948zM1155 56.802L1199.647 51c6.003 18.898 12.619 40.284 19.353 62.392L1166.168 120 1155 56.802zm8 64.878l-40.656 5.32L1113 63.346 1152.253 58 1163 121.68zM1093.133 222L1082 134.68l36.172-4.68L1130 209.634l-6.171 9.836-30.696 2.53zm6.528 38l-.658-.53-4.003-33.201 26-2.269-21.339 36zm13.181 110l.158.125L1069.577 443 1065 424.186l34.074-52.313 13.768-1.873zm-52.23-41L1108 367.32 1030 378l30.612-49zm-51.627-32.073l3.037-8.927L1059 326.096l-32.241 51.754L982 384l26.985-87.073zM928.075 326L981 344.608l-13.222 42.148L907 395l21.075-69zm-69.484 35.415l28.11 8.512L895.986 355 914 361.43l-10.307 33.213-2.663.357L853 379.437l5.591-18.022zM830.903 290L873 304.578 850.248 378 807 363.979 830.903 290zM770 350.388l10.192-39.102L808.059 280 828 287.141 804.627 362 770 350.388zM772.967 461L743 451.288 768.524 354 803 365.484 772.967 461zm-11.07 40.186c-2.816-3.151-8.55-2.113-11.897-1.14l.787-13.033L761.599 461l9.679 3.298c.012 3.934.274 14.411 2.638 18.683 1.625 2.933 1.13 15.603.407 23.42-2.523 1.097-5.146 2.321-7.756 3.599-.797-2.36-2.35-6.212-4.67-8.814zm-13.498 14.695l.651-.52.702-11.145c3.583-1.171 8.498-1.916 10.07-.228 2.06 2.208 3.489 5.761 4.178 7.774-11.003 5.325-20.91 10.93-21.557 11.295l-.5.282-4.11 8.661-7.833-1.31c4.389-3.607 12.709-10.275 18.399-14.809zM747 494.721l-1.14 18.046c-6.708 5.322-16.751 13.324-20.155 16.233L686 506.875 695.398 476 747 494.72zm14-32.35l-11.544 26.364-.336 5.265L698 475.527 707.323 445 761 462.37zM747.472 348L765 353.76 739.122 451 673 429.864c1.202-1.31 1.976-2.164 2.234-2.445L747.472 348zM775 319l-8.386 31L751 344.957 775 319zm-124-7.907L694.106 225l6.627 2.928c2.561 1.399 21.511 11.289 39.267 7.991L668.689 319 651 311.093zm-65.673 50.38l40.796-2.47-.105-1.842 1.6.834L649.21 314l16.79 7.65L558 450l27.327-88.527zM489 429.476L514.927 367 566 388.924 546.114 452 489 429.476zm-4 9.485l2.475-5.961L544 455.287 542.195 461 485 438.961zm-.505 5.039L542 466.767 533.642 494 474 469.973 484.495 444zM376 389l109 43.916-2.141 6.084L376 397.051V389zm175-118.831L536.717 305 474 276.418 497.501 246 551 270.169zm36-94.997L550.376 265 498 241.2l37.434-89.2L587 175.172zm12.185-70.558L616 111.276 593.6 166 542 142.909 579.882 53l32.885 14.657-13.582 36.957zM631 75.352L618.181 107 605 101.725 616.9 69l14.1 6.352zM632.623 70L618 63.486 646.494-14 664-6.608 632.623 70zm34.631 18L635 73.468 666.372-4 705 12.502 667.254 88zM606 290.51l.373-1.213L638.392 198 690 221.17 646.721 309 606 290.51zm-.255 3.49L646 312.36l-21.245 43.294L586 358l19.745-64zM596 168.59L632.932 78 665 92.347 632.527 185 596 168.59zm34 24.092l-32.278 91.944-.118.374L556 266.125 592.812 176 630 192.682zM555.067 272L597 290.838 567.191 386 517 364.317 555.067 272zM510 366.559L484.625 429 387 389.683 431.165 332 510 366.559zm-76-37.937L472.058 279 535 307.888 512.562 363 434 328.622zM694.649 212L642 188.232 674.518 95 738 123.544 694.649 212zM806 153.515c-8.938 10.529-41.027 48.162-56.239 63.855-14.9 15.366-43.73-.77-44.011-.93l-.225-.128-6.525-2.94L742.42 125 806 153.515zm6.653-4.332l-2.484-.93-2.342 2.747L743 122.14 812.154-21 887 4.979l-74.347 144.204zM921.809 59L874 35.258 889.149 6 939 23.226 921.81 59zm-32.224 117L874 170.168 925.175 63 976 88.393 889.585 176zM1031 227l8.85-25.804 8.612-62.132 31.425-4.064L1091 222.059 1031 227zm13 1.981l47.459-3.981 4.426 35.301 2.115 1.635L1064.059 317l-12.264-10.053L1044 228.98zm-15.279 1.837l9.832-.818 7.447 74-33-26.855 15.721-46.327zM963 237.267l54-4.267-12.885 36L963 237.267zm-11-85.116L1039 141l-8.08 57.731-10.15 29.316L960.063 233l-4.386-3.5L952 152.152zM954.027 242L1002 280.302l-4.359 12.592L983.127 339 930 320.387 954.027 242zM877 302.197L906.736 203 951 239.11 926.737 320 877 302.197zM875.732 306L926 323.85l-10.354 34.226-20.713-7.582-9.4 15.506L860 358.07 875.732 306zM899 183.865L939.757 143l9.712 9.52L953 227l-54-43.135zm-17.718 18.784L891.816 192 905 202.627 874.546 303 811 280.526l70.282-77.877zM817 151.091L874.191 39 921 62.601 869.702 171 817 151.091zm63 35.635l-7.883 7.932L794.678 280 743 235.955l2.298-2.691c3.922-1.554 7.68-3.904 11.06-7.342 15.725-16.001 47.877-53.21 57.088-63.922L880 186.726zM987 40l40 14.253L988.59 79 987 40zm62 15l-11.45 82.723L950.45 149 941 139.649l43.954-44.471L1049 55zm-517.71 51.023l-11.404 27.842-12.886-5.79L545.796 38l13.797 6.17-6.456 18.41-13.519 9.603 2.053 3.062 14.472-10.284 6.766-19.308L576 51.509 538.007 142l-14.81-6.65 11.424-27.883-3.331-1.444zM385.452 369.246l-.44-.557 22.243-49.868L463.734 231 493 244.403 383.577 388 370 382.508l15.452-13.262zM390.446 313L402 318.297l-21.965 48.78L366 379l24.446-66zM322 363.036L351.824 294 382 307.934 356.598 377 322 363.036zm-21.359 51.676L321.577 367 356 380.684l-4.975 13.313L300 437l.641-22.288zM215 465.448l24.427-61.774L281.454 349 317 363.29l-21.13 48.705-.143.334-.761 26.657L246.836 480 215 465.448zM213.677 470L244 483.89 190 530l23.677-60zm-93.365-41L210 469.848 195.258 507 104 467.678 120.312 429zm-13.995-94L141 353.144 111.955 420 76 404.102 106.317 335zm-16.356-76L125 279.572 104.543 328 69 308.693 89.961 259zm-.446-5L58 235.89 85.919 174 118 187.903 89.515 254zM158 206.55L127.677 278 92 257.15 120.456 190 158 206.55zm29-71.25L158.454 202 121 185.624 149.895 118 187 135.3zm2.153-2.3L152 115.642 189.81 27 227 44.396 189.153 133zm36.076 16L191 133.186 229.09 45 263 60.686 225.229 149zM283 121.958L234.615 236 206 223.07 269.745 74 283 121.958zM289.819 105l-12.822-48.096 1.189-2.879L275 52.497 281.425 37 313 50.71 289.819 105zm17.634 70L290 112.438l.62-1.145h-.003L315.964 54 353 69.291 307.453 175zm1.751 5.89l-.204-.739L356.45 70 391 84.38 345.372 191l-36.168-10.11zm3.91 97.11L349 294.047 318.691 362 283 348.041 313.114 278zM245 331.353L276.34 259 311 274.967 281.359 346 245 331.353zm-63 41.079L203.799 320l35.038 14.122-24.053 55.573 3.293 1.525 24.125-55.742L278 349.91 237.303 403 182 372.432zM199.704 387L236 406.573 211.574 467 173 449.75 199.704 387zM162 302.05L141.887 349 108 331.023 128.774 283 162 302.05zm34-77.977L163.655 299 130 279.853 160.886 209 196 224.073zm1.405-3.073L162 205.654 191.197 138 226 154.09 197.405 221zM200 318.795L178.566 371 151 355.572 171.106 307 200 318.795zm2.962-3.795L174 303.278 205.835 227 234 240.038 202.962 315zM272 260.13L239.83 332 204 318.03 235.825 244 272 260.13zM305.557 191L342 201.434 312.105 273 277 256.846 305.557 191zm-31.242 63L238 237.694 285.255 127l17.343 62.346.402.112L274.315 254zM136.4 389.993L149.98 358 197 383.66 170.79 446 122 423.922l12.969-30.556 24.22 12.208 1.592-3.294-24.38-12.287zM350.204 292L315 275.237 344.66 205H388l-37.796 87zm78.127-77L461 229.83 405.083 316 393 310.455 428.331 215zm-42.928 90L355 291.316 394.151 203 420 213.332 385.403 305zM674 320.152L743.743 239 795 282.392 724.116 360l-45.558-37.74-1.142 1.41.73-1.67-4.146-1.848zM1117.19 359L1066 318.443 1100.081 265 1151 303.014 1117.19 359zm46.48 4l.33 35-36-29.974 35.67-5.026zm-40.377 2l-2.293-1.885L1162.348 292l.652 67.47-39.707 5.53zm130.514-116.574l1.193 99.222-38 5.352V247l36.807 1.426zM1192 241.704l.205-.341.132-.228L1222.143 128c10.524 36.224 21.065 73.323 29.659 104.128L1252 244l-60-2.296zM1304.08 339l-2.08-90 40.423 1.531 1.577.68-.12 82.387-39.8 5.402zM1340 454.362L1311.321 504 1304 453l36 1.362zm-32.78-11.687L1305 345.37l39-5.37-.15 104-36.63-1.325zM1344.953 249l-1.396-.607-.301-.133L1303 246.71 1353.794 132 1391 149.013 1344.953 249zm2.047 85l.113-82 33.616 15.391L1383 328.8 1347 334zm39.656 51l2.344 60-38-1.367L1386.656 385zM1347 444l.15-105.817 37.109-5.183 1.741 45.55-39 65.45zm67-403.2l-40.948 96.2-18.052-8.187L1397.766 33 1414 40.8zm42 20.976v-4.102l-15.388-7.403.148-.315-3.253-1.598-.163.344-38.367-18.457 43.174-96.871L1456-60.147v-4.074L1443.65-70l.723-1.624-3.276-1.548-.728 1.637-34.16-15.975L1416.727-111h-11.906l-8.457 18.888-37.732-17.641.524-1.247h-26.976c-13.41 6.48-30.867 11.026-52.282 13.598l-.836-13.598h-3.611l.859 13.99c-13.03 1.407-27.417 2.135-43.221 2.135-8.822 0-17.92 2.015-26.272 4.787L1200.507-111h-3.773l6.671 22.101c-16.23 5.909-28.877 14.148-29.694 14.684l-.858.566-16.76 23.715c-11.673-11.092-25.08-24.446-35.606-35.952 4.87-5.292 14.926-15.204 29.837-25.114h-6.48c-12.56 8.915-21.248 17.47-25.817 22.406-8.306-9.267-14.367-17.02-15.528-20.9-.135-.452-.235-.964-.314-1.506h-10.883c.147 1.638.405 3.244.864 4.777 3.54 11.844 34.053 43.237 57.537 65.332l-15.37 21.747-75.34 54.726C1050.082 12.165 1019.85-67.985 1007.05-111h-11.297c7.745 26.78 22.867 69.186 35.412 103.24l-191.2-68.608L856.614-111h-4.024l-16.038 33.364-28.512-11.056L820.908-111h-4.195l-12.101 20.983-28.52-11.061 5.176-9.922h-12.27l-9.224 17.683-16.941-13.52-1.102 1.463.7-1.708-9.019-3.918h-9.264l16.662 7.239 17.234 13.76-20.5 39.313-44.236-18.323L710.43-111h-3.905l-16.572 40.63-50.24-19.796L648.457-111h-3.925l-8.121 19.346L598.267-111h-8.157l12.83 6.505-22.848 53.7-17.96 9.288-15.05-8.236L574.457-111h-11.904l-99.545 222.758-29.737-8.932L519.872-111h-2.959L471.185-.422l-34.439-15.37L476.62-111h-3.934L433.44-17.277l-33.383-14.89L433.288-111h-3.928l-32.61 77.363-34.858-15.552L388.834-111h-3.95l-26.297 60.335-33.134-14.784L344.735-111h-3.93l-18.658 44.076-37.06-16.536L296.794-111h-3.931l-11.08 26.065-45.869-20.468 3.844-5.597h-4.414l-2.808 4.09-9.166-4.09h-9.053l16.096 7.182-21.043 30.64L128.582-111h-8.704l87.371 40.902L158.876.335 34.836-57.973 65.218-111h-4.184L31.538-59.52 0-74.348v12.229l154.321 72.548-39.224 88.306L0 44.7v4.078l81.057 38.055c-2.903 6.433-13.99 31.13-30.53 69.407L0 133.999v4.035l49.066 21.595c-4.954 11.481-10.363 24.099-16.172 37.775-3.265 7.692-5.437 15.08-6.716 22.144L0 204.274v4.263l25.562 14.916c-2.964 21.573 2.34 39.96 9.97 54.393L.018 357.796l3.28 1.543 34.439-77.533c10.007 17.083 22.753 27.909 26.675 31.004l-30.884 72.773L0 370.281v4.057l32.086 14.644-17.27 40.694L0 423.28v4.021l13.372 5.774-8.86 20.881 3.3 1.485 8.882-20.93 76.293 32.94-21.109 50.158L0 488.261v11.969l67.58 27.593L40.99 591h11.78l24.864-59.071 95.286 38.908L149.978 591h5.552l21.182-18.62 22.331 9.12-3.414 9.5h3.844l2.922-8.132L222.309 591h29.313l-39.643-16.186 26.707-25.827 47.005 21.918-7.43 20.095h11.57l5.73-15.495L328.79 591h8.735l-40.68-18.967 13.099-35.41 91.647 37.192L407.055 591h3.791l-4.902-15.419 17.661 7.166L420.24 591h3.908l2.81-6.891L443.941 591h9.825l-25.416-10.314 27.001-66.202 62.948 27.582L503.143 591h11.346l.238-.768c1.242-1.42 3.972-4.533 7.744-8.712l26.097 9.48h10.843l-34.256-12.443c7.32-8.046 17.414-18.825 27.746-28.933l66.296 21.229-6.16 20.147h3.776l19.398-63.451 37.64 12.641-15.5 50.81h3.919l15.286-49.54 43.958 14.55-6.916 20.966v3.304h-18.765L693.226 591h3.305l2.174-9.343h13.636l-.605.961 4.586 8.382h4.377l-5.015-9.418 8.704-24.42 33.31 11.187L751.941 591h3.726l5.462-21.5 28.865 9.696-3.56 11.804h3.772l3.215-10.654L825.144 591h11.62l-42.273-14.197 28.298-93.795 50.114 16.235L845.201 591h3.776l27.365-90.643 51.952 16.83L905.404 591h11.35l35.98-116.036 11.506 2.659-16.195 25.991-.259.413L943.428 591h3.61l4.3-85.8 16.659-26.728 50.873 11.149-2.33 3.614-.15.233L988.177 591h3.875l27.703-95.942 2.94-4.606 16.937 3.717-1.5 2.529-.251.42-2.303 93.882h3.603l2.274-92.799 1.899-3.213 35.947 7.875-.694 88.137h3.606l.69-88.384 41.128-17.296-1.985 105.68h3.604l2.015-107.209 36.66-15.418L1165.528 591h3.944l-1.362-124.136 40.53-17.084.73.63 2.11 1.13.883.006V591h4.014V451.675l39.996 1.475 2.485 119.528L1233.071 591h20.368l5.163-3.53.043 3.53h9.907l-.21-12.518 28.53-20.047.017.213 16.42-1.138 2.073 33.49h3.612l-2.088-33.74 40.853-2.83 2.033 36.57h3.609l-2.047-36.818 35.356-2.452 2.856 39.27h3.612l-2.873-39.5 55.695-3.865v-3.725l-55.965 3.873-4.28-58.826 41.635-29.254 15.373.556.375-11.121-60.358-2.175-2.59-66.558 31.229-51.494 13.748-1.886-.477-3.678-10.793 1.483 17.913-29.535 4.429 1.924 1.401-3.416-3.9-1.696 10.738-17.704-3.056-1.963-11.049 18.206-53.984-23.469 42.18-100.434 1.422.648 1.459-3.397-1.45-.657 24.602-58.576-3.309-1.468-24.59 58.546-31.23-14.185 43.586-94.028 16.941 8.15z" mask="url(#8dvuslpbqb)"/>
                <g mask="url(#8dvuslpbqb)">
                    <g>
                        <g>
                            <path fill="#FFF" d="M12 34c3.968 0 12-14.598 12-21.5C24 5.595 18.627 0 12 0S0 5.596 0 12.5C0 19.401 8.032 34 12 34z" transform="translate(16 3) translate(182 21)"/>
                            <path fill="#EBEBEB" d="M12 34c3.968 0 12-14.598 12-21.5C24 5.595 18.627 0 12 0S0 5.596 0 12.5C0 19.401 8.032 34 12 34z" transform="translate(16 3) translate(182 21)"/>
                            <path fill="#FFF" d="M16 10c.552 0 1 .448 1 1v3.335c0 .101-.015.202-.045.298-.165.527-.726.821-1.253.657-1.835-.573-3.07-1.146-3.703-1.718-.63.572-1.865 1.145-3.701 1.718-.527.164-1.088-.13-1.253-.657-.03-.096-.045-.197-.045-.298V11c0-.552.448-1 1-1 .101 0 .201.015.298.045 1.836.573 3.071 1.146 3.704 1.72.63-.574 1.865-1.147 3.7-1.72.097-.03.197-.045.298-.045z" transform="translate(16 3) translate(182 21)"/>
                        </g>
                        <g>
                            <path fill="#FFF" d="M12 34c3.968 0 12-14.598 12-21.5C24 5.595 18.627 0 12 0S0 5.596 0 12.5C0 19.401 8.032 34 12 34z" transform="translate(16 3) translate(263 76)"/>
                            <path fill="#EBEBEB" d="M12 34c3.968 0 12-14.598 12-21.5C24 5.595 18.627 0 12 0S0 5.596 0 12.5C0 19.401 8.032 34 12 34z" transform="translate(16 3) translate(263 76)"/>
                            <path fill="#FFF" d="M16 10c.552 0 1 .448 1 1v3.335c0 .101-.015.202-.045.298-.165.527-.726.821-1.253.657-1.835-.573-3.07-1.146-3.703-1.718-.63.572-1.865 1.145-3.701 1.718-.527.164-1.088-.13-1.253-.657-.03-.096-.045-.197-.045-.298V11c0-.552.448-1 1-1 .101 0 .201.015.298.045 1.836.573 3.071 1.146 3.704 1.72.63-.574 1.865-1.147 3.7-1.72.097-.03.197-.045.298-.045z" transform="translate(16 3) translate(263 76)"/>
                        </g>
                        <g>
                            <path fill="#FFF" d="M12 34c3.968 0 12-14.598 12-21.5C24 5.595 18.627 0 12 0S0 5.596 0 12.5C0 19.401 8.032 34 12 34z" transform="translate(16 3) translate(140 128)"/>
                            <path fill="#EBEBEB" d="M12 34c3.968 0 12-14.598 12-21.5C24 5.595 18.627 0 12 0S0 5.596 0 12.5C0 19.401 8.032 34 12 34z" transform="translate(16 3) translate(140 128)"/>
                            <path fill="#FFF" d="M16 10c.552 0 1 .448 1 1v3.335c0 .101-.015.202-.045.298-.165.527-.726.821-1.253.657-1.835-.573-3.07-1.146-3.703-1.718-.63.572-1.865 1.145-3.701 1.718-.527.164-1.088-.13-1.253-.657-.03-.096-.045-.197-.045-.298V11c0-.552.448-1 1-1 .101 0 .201.015.298.045 1.836.573 3.071 1.146 3.704 1.72.63-.574 1.865-1.147 3.7-1.72.097-.03.197-.045.298-.045z" transform="translate(16 3) translate(140 128)"/>
                        </g>
                        <g>
                            <path fill="#FFF" d="M12 34c3.968 0 12-14.598 12-21.5C24 5.595 18.627 0 12 0S0 5.596 0 12.5C0 19.401 8.032 34 12 34z" transform="translate(16 3) translate(174 301)"/>
                            <path fill="#EBEBEB" d="M12 34c3.968 0 12-14.598 12-21.5C24 5.595 18.627 0 12 0S0 5.596 0 12.5C0 19.401 8.032 34 12 34z" transform="translate(16 3) translate(174 301)"/>
                            <path fill="#FFF" d="M16 10c.552 0 1 .448 1 1v3.335c0 .101-.015.202-.045.298-.165.527-.726.821-1.253.657-1.835-.573-3.07-1.146-3.703-1.718-.63.572-1.865 1.145-3.701 1.718-.527.164-1.088-.13-1.253-.657-.03-.096-.045-.197-.045-.298V11c0-.552.448-1 1-1 .101 0 .201.015.298.045 1.836.573 3.071 1.146 3.704 1.72.63-.574 1.865-1.147 3.7-1.72.097-.03.197-.045.298-.045z" transform="translate(16 3) translate(174 301)"/>
                        </g>
                        <g>
                            <path fill="#FFF" d="M12 34c3.968 0 12-14.598 12-21.5C24 5.595 18.627 0 12 0S0 5.596 0 12.5C0 19.401 8.032 34 12 34z" transform="translate(16 3) translate(35 353)"/>
                            <path fill="#EBEBEB" d="M12 34c3.968 0 12-14.598 12-21.5C24 5.595 18.627 0 12 0S0 5.596 0 12.5C0 19.401 8.032 34 12 34z" transform="translate(16 3) translate(35 353)"/>
                            <path fill="#FFF" d="M16 10c.552 0 1 .448 1 1v3.335c0 .101-.015.202-.045.298-.165.527-.726.821-1.253.657-1.835-.573-3.07-1.146-3.703-1.718-.63.572-1.865 1.145-3.701 1.718-.527.164-1.088-.13-1.253-.657-.03-.096-.045-.197-.045-.298V11c0-.552.448-1 1-1 .101 0 .201.015.298.045 1.836.573 3.071 1.146 3.704 1.72.63-.574 1.865-1.147 3.7-1.72.097-.03.197-.045.298-.045z" transform="translate(16 3) translate(35 353)"/>
                        </g>
                        <g>
                            <path fill="#FFF" d="M12 34c3.968 0 12-14.598 12-21.5C24 5.595 18.627 0 12 0S0 5.596 0 12.5C0 19.401 8.032 34 12 34z" transform="translate(16 3) translate(50 210)"/>
                            <path fill="#EBEBEB" d="M12 34c3.968 0 12-14.598 12-21.5C24 5.595 18.627 0 12 0S0 5.596 0 12.5C0 19.401 8.032 34 12 34z" transform="translate(16 3) translate(50 210)"/>
                            <path fill="#FFF" d="M16 10c.552 0 1 .448 1 1v3.335c0 .101-.015.202-.045.298-.165.527-.726.821-1.253.657-1.835-.573-3.07-1.146-3.703-1.718-.63.572-1.865 1.145-3.701 1.718-.527.164-1.088-.13-1.253-.657-.03-.096-.045-.197-.045-.298V11c0-.552.448-1 1-1 .101 0 .201.015.298.045 1.836.573 3.071 1.146 3.704 1.72.63-.574 1.865-1.147 3.7-1.72.097-.03.197-.045.298-.045z" transform="translate(16 3) translate(50 210)"/>
                        </g>
                        <g>
                            <path fill="#FFF" d="M12 34c3.968 0 12-14.598 12-21.5C24 5.595 18.627 0 12 0S0 5.596 0 12.5C0 19.401 8.032 34 12 34z" transform="translate(16 3) translate(0 90)"/>
                            <path fill="#EBEBEB" d="M12 34c3.968 0 12-14.598 12-21.5C24 5.595 18.627 0 12 0S0 5.596 0 12.5C0 19.401 8.032 34 12 34z" transform="translate(16 3) translate(0 90)"/>
                            <path fill="#FFF" d="M16 10c.552 0 1 .448 1 1v3.335c0 .101-.015.202-.045.298-.165.527-.726.821-1.253.657-1.835-.573-3.07-1.146-3.703-1.718-.63.572-1.865 1.145-3.701 1.718-.527.164-1.088-.13-1.253-.657-.03-.096-.045-.197-.045-.298V11c0-.552.448-1 1-1 .101 0 .201.015.298.045 1.836.573 3.071 1.146 3.704 1.72.63-.574 1.865-1.147 3.7-1.72.097-.03.197-.045.298-.045z" transform="translate(16 3) translate(0 90)"/>
                        </g>
                        <g>
                            <path fill="#FFF" d="M12 34c3.968 0 12-14.598 12-21.5C24 5.595 18.627 0 12 0S0 5.596 0 12.5C0 19.401 8.032 34 12 34z" transform="translate(16 3) translate(84 59)"/>
                            <path fill="#EBEBEB" d="M12 34c3.968 0 12-14.598 12-21.5C24 5.595 18.627 0 12 0S0 5.596 0 12.5C0 19.401 8.032 34 12 34z" transform="translate(16 3) translate(84 59)"/>
                            <path fill="#FFF" d="M16 10c.552 0 1 .448 1 1v3.335c0 .101-.015.202-.045.298-.165.527-.726.821-1.253.657-1.835-.573-3.07-1.146-3.703-1.718-.63.572-1.865 1.145-3.701 1.718-.527.164-1.088-.13-1.253-.657-.03-.096-.045-.197-.045-.298V11c0-.552.448-1 1-1 .101 0 .201.015.298.045 1.836.573 3.071 1.146 3.704 1.72.63-.574 1.865-1.147 3.7-1.72.097-.03.197-.045.298-.045z" transform="translate(16 3) translate(84 59)"/>
                        </g>
                        <g>
                            <path fill="#FFF" d="M12 34c3.968 0 12-14.598 12-21.5C24 5.595 18.627 0 12 0S0 5.596 0 12.5C0 19.401 8.032 34 12 34z" transform="translate(16 3) translate(286 267)"/>
                            <path fill="#EBEBEB" d="M12 34c3.968 0 12-14.598 12-21.5C24 5.595 18.627 0 12 0S0 5.596 0 12.5C0 19.401 8.032 34 12 34z" transform="translate(16 3) translate(286 267)"/>
                            <path fill="#FFF" d="M16 10c.552 0 1 .448 1 1v3.335c0 .101-.015.202-.045.298-.165.527-.726.821-1.253.657-1.835-.573-3.07-1.146-3.703-1.718-.63.572-1.865 1.145-3.701 1.718-.527.164-1.088-.13-1.253-.657-.03-.096-.045-.197-.045-.298V11c0-.552.448-1 1-1 .101 0 .201.015.298.045 1.836.573 3.071 1.146 3.704 1.72.63-.574 1.865-1.147 3.7-1.72.097-.03.197-.045.298-.045z" transform="translate(16 3) translate(286 267)"/>
                        </g>
                        <g>
                            <path fill="#FFF" d="M12 34c3.968 0 12-14.598 12-21.5C24 5.595 18.627 0 12 0S0 5.596 0 12.5C0 19.401 8.032 34 12 34z" transform="translate(16 3) translate(321 337)"/>
                            <path fill="#EBEBEB" d="M12 34c3.968 0 12-14.598 12-21.5C24 5.595 18.627 0 12 0S0 5.596 0 12.5C0 19.401 8.032 34 12 34z" transform="translate(16 3) translate(321 337)"/>
                            <path fill="#FFF" d="M16 10c.552 0 1 .448 1 1v3.335c0 .101-.015.202-.045.298-.165.527-.726.821-1.253.657-1.835-.573-3.07-1.146-3.703-1.718-.63.572-1.865 1.145-3.701 1.718-.527.164-1.088-.13-1.253-.657-.03-.096-.045-.197-.045-.298V11c0-.552.448-1 1-1 .101 0 .201.015.298.045 1.836.573 3.071 1.146 3.704 1.72.63-.574 1.865-1.147 3.7-1.72.097-.03.197-.045.298-.045z" transform="translate(16 3) translate(321 337)"/>
                        </g>
                        <g>
                            <path fill="#FFF" d="M12 34c3.968 0 12-14.598 12-21.5C24 5.595 18.627 0 12 0S0 5.596 0 12.5C0 19.401 8.032 34 12 34z" transform="translate(16 3) translate(130 380)"/>
                            <path fill="#EBEBEB" d="M12 34c3.968 0 12-14.598 12-21.5C24 5.595 18.627 0 12 0S0 5.596 0 12.5C0 19.401 8.032 34 12 34z" transform="translate(16 3) translate(130 380)"/>
                            <path fill="#FFF" d="M16 10c.552 0 1 .448 1 1v3.335c0 .101-.015.202-.045.298-.165.527-.726.821-1.253.657-1.835-.573-3.07-1.146-3.703-1.718-.63.572-1.865 1.145-3.701 1.718-.527.164-1.088-.13-1.253-.657-.03-.096-.045-.197-.045-.298V11c0-.552.448-1 1-1 .101 0 .201.015.298.045 1.836.573 3.071 1.146 3.704 1.72.63-.574 1.865-1.147 3.7-1.72.097-.03.197-.045.298-.045z" transform="translate(16 3) translate(130 380)"/>
                        </g>
                        <g>
                            <path fill="#FFF" d="M12 34c3.968 0 12-14.598 12-21.5C24 5.595 18.627 0 12 0S0 5.596 0 12.5C0 19.401 8.032 34 12 34z" transform="translate(16 3) translate(474 322)"/>
                            <path fill="#EBEBEB" d="M12 34c3.968 0 12-14.598 12-21.5C24 5.595 18.627 0 12 0S0 5.596 0 12.5C0 19.401 8.032 34 12 34z" transform="translate(16 3) translate(474 322)"/>
                            <path fill="#FFF" d="M16 10c.552 0 1 .448 1 1v3.335c0 .101-.015.202-.045.298-.165.527-.726.821-1.253.657-1.835-.573-3.07-1.146-3.703-1.718-.63.572-1.865 1.145-3.701 1.718-.527.164-1.088-.13-1.253-.657-.03-.096-.045-.197-.045-.298V11c0-.552.448-1 1-1 .101 0 .201.015.298.045 1.836.573 3.071 1.146 3.704 1.72.63-.574 1.865-1.147 3.7-1.72.097-.03.197-.045.298-.045z" transform="translate(16 3) translate(474 322)"/>
                        </g>
                        <g>
                            <path fill="#FFF" d="M12 34c3.968 0 12-14.598 12-21.5C24 5.595 18.627 0 12 0S0 5.596 0 12.5C0 19.401 8.032 34 12 34z" transform="translate(16 3) translate(427 384)"/>
                            <path fill="#EBEBEB" d="M12 34c3.968 0 12-14.598 12-21.5C24 5.595 18.627 0 12 0S0 5.596 0 12.5C0 19.401 8.032 34 12 34z" transform="translate(16 3) translate(427 384)"/>
                            <path fill="#FFF" d="M16 10c.552 0 1 .448 1 1v3.335c0 .101-.015.202-.045.298-.165.527-.726.821-1.253.657-1.835-.573-3.07-1.146-3.703-1.718-.63.572-1.865 1.145-3.701 1.718-.527.164-1.088-.13-1.253-.657-.03-.096-.045-.197-.045-.298V11c0-.552.448-1 1-1 .101 0 .201.015.298.045 1.836.573 3.071 1.146 3.704 1.72.63-.574 1.865-1.147 3.7-1.72.097-.03.197-.045.298-.045z" transform="translate(16 3) translate(427 384)"/>
                        </g>
                        <g>
                            <path fill="#FFF" d="M12 34c3.968 0 12-14.598 12-21.5C24 5.595 18.627 0 12 0S0 5.596 0 12.5C0 19.401 8.032 34 12 34z" transform="translate(16 3) translate(518 187)"/>
                            <path fill="#EBEBEB" d="M12 34c3.968 0 12-14.598 12-21.5C24 5.595 18.627 0 12 0S0 5.596 0 12.5C0 19.401 8.032 34 12 34z" transform="translate(16 3) translate(518 187)"/>
                            <path fill="#FFF" d="M16 10c.552 0 1 .448 1 1v3.335c0 .101-.015.202-.045.298-.165.527-.726.821-1.253.657-1.835-.573-3.07-1.146-3.703-1.718-.63.572-1.865 1.145-3.701 1.718-.527.164-1.088-.13-1.253-.657-.03-.096-.045-.197-.045-.298V11c0-.552.448-1 1-1 .101 0 .201.015.298.045 1.836.573 3.071 1.146 3.704 1.72.63-.574 1.865-1.147 3.7-1.72.097-.03.197-.045.298-.045z" transform="translate(16 3) translate(518 187)"/>
                        </g>
                        <g>
                            <path fill="#FFF" d="M12 34c3.968 0 12-14.598 12-21.5C24 5.595 18.627 0 12 0S0 5.596 0 12.5C0 19.401 8.032 34 12 34z" transform="translate(16 3) translate(473 90)"/>
                            <path fill="#EBEBEB" d="M12 34c3.968 0 12-14.598 12-21.5C24 5.595 18.627 0 12 0S0 5.596 0 12.5C0 19.401 8.032 34 12 34z" transform="translate(16 3) translate(473 90)"/>
                            <path fill="#FFF" d="M16 10c.552 0 1 .448 1 1v3.335c0 .101-.015.202-.045.298-.165.527-.726.821-1.253.657-1.835-.573-3.07-1.146-3.703-1.718-.63.572-1.865 1.145-3.701 1.718-.527.164-1.088-.13-1.253-.657-.03-.096-.045-.197-.045-.298V11c0-.552.448-1 1-1 .101 0 .201.015.298.045 1.836.573 3.071 1.146 3.704 1.72.63-.574 1.865-1.147 3.7-1.72.097-.03.197-.045.298-.045z" transform="translate(16 3) translate(473 90)"/>
                        </g>
                        <g>
                            <path fill="#FFF" d="M12 34c3.968 0 12-14.598 12-21.5C24 5.595 18.627 0 12 0S0 5.596 0 12.5C0 19.401 8.032 34 12 34z" transform="translate(16 3) translate(370 21)"/>
                            <path fill="#EBEBEB" d="M12 34c3.968 0 12-14.598 12-21.5C24 5.595 18.627 0 12 0S0 5.596 0 12.5C0 19.401 8.032 34 12 34z" transform="translate(16 3) translate(370 21)"/>
                            <path fill="#FFF" d="M16 10c.552 0 1 .448 1 1v3.335c0 .101-.015.202-.045.298-.165.527-.726.821-1.253.657-1.835-.573-3.07-1.146-3.703-1.718-.63.572-1.865 1.145-3.701 1.718-.527.164-1.088-.13-1.253-.657-.03-.096-.045-.197-.045-.298V11c0-.552.448-1 1-1 .101 0 .201.015.298.045 1.836.573 3.071 1.146 3.704 1.72.63-.574 1.865-1.147 3.7-1.72.097-.03.197-.045.298-.045z" transform="translate(16 3) translate(370 21)"/>
                        </g>
                        <g>
                            <path fill="#FFF" d="M12 34c3.968 0 12-14.598 12-21.5C24 5.595 18.627 0 12 0S0 5.596 0 12.5C0 19.401 8.032 34 12 34z" transform="translate(16 3) translate(538 21)"/>
                            <path fill="#EBEBEB" d="M12 34c3.968 0 12-14.598 12-21.5C24 5.595 18.627 0 12 0S0 5.596 0 12.5C0 19.401 8.032 34 12 34z" transform="translate(16 3) translate(538 21)"/>
                            <path fill="#FFF" d="M16 10c.552 0 1 .448 1 1v3.335c0 .101-.015.202-.045.298-.165.527-.726.821-1.253.657-1.835-.573-3.07-1.146-3.703-1.718-.63.572-1.865 1.145-3.701 1.718-.527.164-1.088-.13-1.253-.657-.03-.096-.045-.197-.045-.298V11c0-.552.448-1 1-1 .101 0 .201.015.298.045 1.836.573 3.071 1.146 3.704 1.72.63-.574 1.865-1.147 3.7-1.72.097-.03.197-.045.298-.045z" transform="translate(16 3) translate(538 21)"/>
                        </g>
                        <g>
                            <path fill="#FFF" d="M12 34c3.968 0 12-14.598 12-21.5C24 5.595 18.627 0 12 0S0 5.596 0 12.5C0 19.401 8.032 34 12 34z" transform="translate(16 3) translate(698)"/>
                            <path fill="#EBEBEB" d="M12 34c3.968 0 12-14.598 12-21.5C24 5.595 18.627 0 12 0S0 5.596 0 12.5C0 19.401 8.032 34 12 34z" transform="translate(16 3) translate(698)"/>
                            <path fill="#FFF" d="M16 10c.552 0 1 .448 1 1v3.335c0 .101-.015.202-.045.298-.165.527-.726.821-1.253.657-1.835-.573-3.07-1.146-3.703-1.718-.63.572-1.865 1.145-3.701 1.718-.527.164-1.088-.13-1.253-.657-.03-.096-.045-.197-.045-.298V11c0-.552.448-1 1-1 .101 0 .201.015.298.045 1.836.573 3.071 1.146 3.704 1.72.63-.574 1.865-1.147 3.7-1.72.097-.03.197-.045.298-.045z" transform="translate(16 3) translate(698)"/>
                        </g>
                        <g>
                            <path fill="#FFF" d="M12 34c3.968 0 12-14.598 12-21.5C24 5.595 18.627 0 12 0S0 5.596 0 12.5C0 19.401 8.032 34 12 34z" transform="translate(16 3) translate(383 144)"/>
                            <path fill="#EBEBEB" d="M12 34c3.968 0 12-14.598 12-21.5C24 5.595 18.627 0 12 0S0 5.596 0 12.5C0 19.401 8.032 34 12 34z" transform="translate(16 3) translate(383 144)"/>
                            <path fill="#FFF" d="M16 10c.552 0 1 .448 1 1v3.335c0 .101-.015.202-.045.298-.165.527-.726.821-1.253.657-1.835-.573-3.07-1.146-3.703-1.718-.63.572-1.865 1.145-3.701 1.718-.527.164-1.088-.13-1.253-.657-.03-.096-.045-.197-.045-.298V11c0-.552.448-1 1-1 .101 0 .201.015.298.045 1.836.573 3.071 1.146 3.704 1.72.63-.574 1.865-1.147 3.7-1.72.097-.03.197-.045.298-.045z" transform="translate(16 3) translate(383 144)"/>
                        </g>
                        <g>
                            <path fill="#FFF" d="M12 34c3.968 0 12-14.598 12-21.5C24 5.595 18.627 0 12 0S0 5.596 0 12.5C0 19.401 8.032 34 12 34z" transform="translate(16 3) translate(581 310)"/>
                            <path fill="#EBEBEB" d="M12 34c3.968 0 12-14.598 12-21.5C24 5.595 18.627 0 12 0S0 5.596 0 12.5C0 19.401 8.032 34 12 34z" transform="translate(16 3) translate(581 310)"/>
                            <path fill="#FFF" d="M16 10c.552 0 1 .448 1 1v3.335c0 .101-.015.202-.045.298-.165.527-.726.821-1.253.657-1.835-.573-3.07-1.146-3.703-1.718-.63.572-1.865 1.145-3.701 1.718-.527.164-1.088-.13-1.253-.657-.03-.096-.045-.197-.045-.298V11c0-.552.448-1 1-1 .101 0 .201.015.298.045 1.836.573 3.071 1.146 3.704 1.72.63-.574 1.865-1.147 3.7-1.72.097-.03.197-.045.298-.045z" transform="translate(16 3) translate(581 310)"/>
                        </g>
                        <g>
                            <path fill="#FFF" d="M12 34c3.968 0 12-14.598 12-21.5C24 5.595 18.627 0 12 0S0 5.596 0 12.5C0 19.401 8.032 34 12 34z" transform="translate(16 3) translate(756 353)"/>
                            <path fill="#EBEBEB" d="M12 34c3.968 0 12-14.598 12-21.5C24 5.595 18.627 0 12 0S0 5.596 0 12.5C0 19.401 8.032 34 12 34z" transform="translate(16 3) translate(756 353)"/>
                            <path fill="#FFF" d="M16 10c.552 0 1 .448 1 1v3.335c0 .101-.015.202-.045.298-.165.527-.726.821-1.253.657-1.835-.573-3.07-1.146-3.703-1.718-.63.572-1.865 1.145-3.701 1.718-.527.164-1.088-.13-1.253-.657-.03-.096-.045-.197-.045-.298V11c0-.552.448-1 1-1 .101 0 .201.015.298.045 1.836.573 3.071 1.146 3.704 1.72.63-.574 1.865-1.147 3.7-1.72.097-.03.197-.045.298-.045z" transform="translate(16 3) translate(756 353)"/>
                        </g>
                        <g>
                            <path fill="#FFF" d="M12 34c3.968 0 12-14.598 12-21.5C24 5.595 18.627 0 12 0S0 5.596 0 12.5C0 19.401 8.032 34 12 34z" transform="translate(16 3) translate(807 278)"/>
                            <path fill="#EBEBEB" d="M12 34c3.968 0 12-14.598 12-21.5C24 5.595 18.627 0 12 0S0 5.596 0 12.5C0 19.401 8.032 34 12 34z" transform="translate(16 3) translate(807 278)"/>
                            <path fill="#FFF" d="M16 10c.552 0 1 .448 1 1v3.335c0 .101-.015.202-.045.298-.165.527-.726.821-1.253.657-1.835-.573-3.07-1.146-3.703-1.718-.63.572-1.865 1.145-3.701 1.718-.527.164-1.088-.13-1.253-.657-.03-.096-.045-.197-.045-.298V11c0-.552.448-1 1-1 .101 0 .201.015.298.045 1.836.573 3.071 1.146 3.704 1.72.63-.574 1.865-1.147 3.7-1.72.097-.03.197-.045.298-.045z" transform="translate(16 3) translate(807 278)"/>
                        </g>
                        <g>
                            <path fill="#FFF" d="M12 34c3.968 0 12-14.598 12-21.5C24 5.595 18.627 0 12 0S0 5.596 0 12.5C0 19.401 8.032 34 12 34z" transform="translate(16 3) translate(1066 150)"/>
                            <path fill="#EBEBEB" d="M12 34c3.968 0 12-14.598 12-21.5C24 5.595 18.627 0 12 0S0 5.596 0 12.5C0 19.401 8.032 34 12 34z" transform="translate(16 3) translate(1066 150)"/>
                            <path fill="#FFF" d="M16 10c.552 0 1 .448 1 1v3.335c0 .101-.015.202-.045.298-.165.527-.726.821-1.253.657-1.835-.573-3.07-1.146-3.703-1.718-.63.572-1.865 1.145-3.701 1.718-.527.164-1.088-.13-1.253-.657-.03-.096-.045-.197-.045-.298V11c0-.552.448-1 1-1 .101 0 .201.015.298.045 1.836.573 3.071 1.146 3.704 1.72.63-.574 1.865-1.147 3.7-1.72.097-.03.197-.045.298-.045z" transform="translate(16 3) translate(1066 150)"/>
                        </g>
                        <g>
                            <path fill="#FFF" d="M12 34c3.968 0 12-14.598 12-21.5C24 5.595 18.627 0 12 0S0 5.596 0 12.5C0 19.401 8.032 34 12 34z" transform="translate(16 3) translate(802 64)"/>
                            <path fill="#EBEBEB" d="M12 34c3.968 0 12-14.598 12-21.5C24 5.595 18.627 0 12 0S0 5.596 0 12.5C0 19.401 8.032 34 12 34z" transform="translate(16 3) translate(802 64)"/>
                            <path fill="#FFF" d="M16 10c.552 0 1 .448 1 1v3.335c0 .101-.015.202-.045.298-.165.527-.726.821-1.253.657-1.835-.573-3.07-1.146-3.703-1.718-.63.572-1.865 1.145-3.701 1.718-.527.164-1.088-.13-1.253-.657-.03-.096-.045-.197-.045-.298V11c0-.552.448-1 1-1 .101 0 .201.015.298.045 1.836.573 3.071 1.146 3.704 1.72.63-.574 1.865-1.147 3.7-1.72.097-.03.197-.045.298-.045z" transform="translate(16 3) translate(802 64)"/>
                        </g>
                        <g>
                            <path fill="#FFF" d="M12 34c3.968 0 12-14.598 12-21.5C24 5.595 18.627 0 12 0S0 5.596 0 12.5C0 19.401 8.032 34 12 34z" transform="translate(16 3) translate(890 14)"/>
                            <path fill="#EBEBEB" d="M12 34c3.968 0 12-14.598 12-21.5C24 5.595 18.627 0 12 0S0 5.596 0 12.5C0 19.401 8.032 34 12 34z" transform="translate(16 3) translate(890 14)"/>
                            <path fill="#FFF" d="M16 10c.552 0 1 .448 1 1v3.335c0 .101-.015.202-.045.298-.165.527-.726.821-1.253.657-1.835-.573-3.07-1.146-3.703-1.718-.63.572-1.865 1.145-3.701 1.718-.527.164-1.088-.13-1.253-.657-.03-.096-.045-.197-.045-.298V11c0-.552.448-1 1-1 .101 0 .201.015.298.045 1.836.573 3.071 1.146 3.704 1.72.63-.574 1.865-1.147 3.7-1.72.097-.03.197-.045.298-.045z" transform="translate(16 3) translate(890 14)"/>
                        </g>
                        <g>
                            <path fill="#FFF" d="M12 34c3.968 0 12-14.598 12-21.5C24 5.595 18.627 0 12 0S0 5.596 0 12.5C0 19.401 8.032 34 12 34z" transform="translate(16 3) translate(933 132)"/>
                            <path fill="#EBEBEB" d="M12 34c3.968 0 12-14.598 12-21.5C24 5.595 18.627 0 12 0S0 5.596 0 12.5C0 19.401 8.032 34 12 34z" transform="translate(16 3) translate(933 132)"/>
                            <path fill="#FFF" d="M16 10c.552 0 1 .448 1 1v3.335c0 .101-.015.202-.045.298-.165.527-.726.821-1.253.657-1.835-.573-3.07-1.146-3.703-1.718-.63.572-1.865 1.145-3.701 1.718-.527.164-1.088-.13-1.253-.657-.03-.096-.045-.197-.045-.298V11c0-.552.448-1 1-1 .101 0 .201.015.298.045 1.836.573 3.071 1.146 3.704 1.72.63-.574 1.865-1.147 3.7-1.72.097-.03.197-.045.298-.045z" transform="translate(16 3) translate(933 132)"/>
                        </g>
                        <g>
                            <path fill="#FFF" d="M12 34c3.968 0 12-14.598 12-21.5C24 5.595 18.627 0 12 0S0 5.596 0 12.5C0 19.401 8.032 34 12 34z" transform="translate(16 3) translate(852 201)"/>
                            <path fill="#EBEBEB" d="M12 34c3.968 0 12-14.598 12-21.5C24 5.595 18.627 0 12 0S0 5.596 0 12.5C0 19.401 8.032 34 12 34z" transform="translate(16 3) translate(852 201)"/>
                            <path fill="#FFF" d="M16 10c.552 0 1 .448 1 1v3.335c0 .101-.015.202-.045.298-.165.527-.726.821-1.253.657-1.835-.573-3.07-1.146-3.703-1.718-.63.572-1.865 1.145-3.701 1.718-.527.164-1.088-.13-1.253-.657-.03-.096-.045-.197-.045-.298V11c0-.552.448-1 1-1 .101 0 .201.015.298.045 1.836.573 3.071 1.146 3.704 1.72.63-.574 1.865-1.147 3.7-1.72.097-.03.197-.045.298-.045z" transform="translate(16 3) translate(852 201)"/>
                        </g>
                        <g>
                            <path fill="#FFF" d="M12 34c3.968 0 12-14.598 12-21.5C24 5.595 18.627 0 12 0S0 5.596 0 12.5C0 19.401 8.032 34 12 34z" transform="translate(16 3) translate(1048 335)"/>
                            <path fill="#EBEBEB" d="M12 34c3.968 0 12-14.598 12-21.5C24 5.595 18.627 0 12 0S0 5.596 0 12.5C0 19.401 8.032 34 12 34z" transform="translate(16 3) translate(1048 335)"/>
                            <path fill="#FFF" d="M16 10c.552 0 1 .448 1 1v3.335c0 .101-.015.202-.045.298-.165.527-.726.821-1.253.657-1.835-.573-3.07-1.146-3.703-1.718-.63.572-1.865 1.145-3.701 1.718-.527.164-1.088-.13-1.253-.657-.03-.096-.045-.197-.045-.298V11c0-.552.448-1 1-1 .101 0 .201.015.298.045 1.836.573 3.071 1.146 3.704 1.72.63-.574 1.865-1.147 3.7-1.72.097-.03.197-.045.298-.045z" transform="translate(16 3) translate(1048 335)"/>
                        </g>
                        <g>
                            <path fill="#FFF" d="M12 34c3.968 0 12-14.598 12-21.5C24 5.595 18.627 0 12 0S0 5.596 0 12.5C0 19.401 8.032 34 12 34z" transform="translate(16 3) translate(881 312)"/>
                            <path fill="#EBEBEB" d="M12 34c3.968 0 12-14.598 12-21.5C24 5.595 18.627 0 12 0S0 5.596 0 12.5C0 19.401 8.032 34 12 34z" transform="translate(16 3) translate(881 312)"/>
                            <path fill="#FFF" d="M16 10c.552 0 1 .448 1 1v3.335c0 .101-.015.202-.045.298-.165.527-.726.821-1.253.657-1.835-.573-3.07-1.146-3.703-1.718-.63.572-1.865 1.145-3.701 1.718-.527.164-1.088-.13-1.253-.657-.03-.096-.045-.197-.045-.298V11c0-.552.448-1 1-1 .101 0 .201.015.298.045 1.836.573 3.071 1.146 3.704 1.72.63-.574 1.865-1.147 3.7-1.72.097-.03.197-.045.298-.045z" transform="translate(16 3) translate(881 312)"/>
                        </g>
                        <g>
                            <path fill="#FFF" d="M12 34c3.968 0 12-14.598 12-21.5C24 5.595 18.627 0 12 0S0 5.596 0 12.5C0 19.401 8.032 34 12 34z" transform="translate(16 3) translate(948 272)"/>
                            <path fill="#EBEBEB" d="M12 34c3.968 0 12-14.598 12-21.5C24 5.595 18.627 0 12 0S0 5.596 0 12.5C0 19.401 8.032 34 12 34z" transform="translate(16 3) translate(948 272)"/>
                            <path fill="#FFF" d="M16 10c.552 0 1 .448 1 1v3.335c0 .101-.015.202-.045.298-.165.527-.726.821-1.253.657-1.835-.573-3.07-1.146-3.703-1.718-.63.572-1.865 1.145-3.701 1.718-.527.164-1.088-.13-1.253-.657-.03-.096-.045-.197-.045-.298V11c0-.552.448-1 1-1 .101 0 .201.015.298.045 1.836.573 3.071 1.146 3.704 1.72.63-.574 1.865-1.147 3.7-1.72.097-.03.197-.045.298-.045z" transform="translate(16 3) translate(948 272)"/>
                        </g>
                        <g>
                            <path fill="#FFF" d="M12 34c3.968 0 12-14.598 12-21.5C24 5.595 18.627 0 12 0S0 5.596 0 12.5C0 19.401 8.032 34 12 34z" transform="translate(16 3) translate(1009 85)"/>
                            <path fill="#EBEBEB" d="M12 34c3.968 0 12-14.598 12-21.5C24 5.595 18.627 0 12 0S0 5.596 0 12.5C0 19.401 8.032 34 12 34z" transform="translate(16 3) translate(1009 85)"/>
                            <path fill="#FFF" d="M16 10c.552 0 1 .448 1 1v3.335c0 .101-.015.202-.045.298-.165.527-.726.821-1.253.657-1.835-.573-3.07-1.146-3.703-1.718-.63.572-1.865 1.145-3.701 1.718-.527.164-1.088-.13-1.253-.657-.03-.096-.045-.197-.045-.298V11c0-.552.448-1 1-1 .101 0 .201.015.298.045 1.836.573 3.071 1.146 3.704 1.72.63-.574 1.865-1.147 3.7-1.72.097-.03.197-.045.298-.045z" transform="translate(16 3) translate(1009 85)"/>
                        </g>
                        <g>
                            <path fill="#FFF" d="M12 34c3.968 0 12-14.598 12-21.5C24 5.595 18.627 0 12 0S0 5.596 0 12.5C0 19.401 8.032 34 12 34z" transform="translate(16 3) translate(1145 124)"/>
                            <path fill="#EBEBEB" d="M12 34c3.968 0 12-14.598 12-21.5C24 5.595 18.627 0 12 0S0 5.596 0 12.5C0 19.401 8.032 34 12 34z" transform="translate(16 3) translate(1145 124)"/>
                            <path fill="#FFF" d="M16 10c.552 0 1 .448 1 1v3.335c0 .101-.015.202-.045.298-.165.527-.726.821-1.253.657-1.835-.573-3.07-1.146-3.703-1.718-.63.572-1.865 1.145-3.701 1.718-.527.164-1.088-.13-1.253-.657-.03-.096-.045-.197-.045-.298V11c0-.552.448-1 1-1 .101 0 .201.015.298.045 1.836.573 3.071 1.146 3.704 1.72.63-.574 1.865-1.147 3.7-1.72.097-.03.197-.045.298-.045z" transform="translate(16 3) translate(1145 124)"/>
                        </g>
                        <g>
                            <path fill="#FFF" d="M12 34c3.968 0 12-14.598 12-21.5C24 5.595 18.627 0 12 0S0 5.596 0 12.5C0 19.401 8.032 34 12 34z" transform="translate(16 3) translate(1110 20)"/>
                            <path fill="#EBEBEB" d="M12 34c3.968 0 12-14.598 12-21.5C24 5.595 18.627 0 12 0S0 5.596 0 12.5C0 19.401 8.032 34 12 34z" transform="translate(16 3) translate(1110 20)"/>
                            <path fill="#FFF" d="M16 10c.552 0 1 .448 1 1v3.335c0 .101-.015.202-.045.298-.165.527-.726.821-1.253.657-1.835-.573-3.07-1.146-3.703-1.718-.63.572-1.865 1.145-3.701 1.718-.527.164-1.088-.13-1.253-.657-.03-.096-.045-.197-.045-.298V11c0-.552.448-1 1-1 .101 0 .201.015.298.045 1.836.573 3.071 1.146 3.704 1.72.63-.574 1.865-1.147 3.7-1.72.097-.03.197-.045.298-.045z" transform="translate(16 3) translate(1110 20)"/>
                        </g>
                        <g>
                            <path fill="#FFF" d="M12 34c3.968 0 12-14.598 12-21.5C24 5.595 18.627 0 12 0S0 5.596 0 12.5C0 19.401 8.032 34 12 34z" transform="translate(16 3) translate(1216 76)"/>
                            <path fill="#EBEBEB" d="M12 34c3.968 0 12-14.598 12-21.5C24 5.595 18.627 0 12 0S0 5.596 0 12.5C0 19.401 8.032 34 12 34z" transform="translate(16 3) translate(1216 76)"/>
                            <path fill="#FFF" d="M16 10c.552 0 1 .448 1 1v3.335c0 .101-.015.202-.045.298-.165.527-.726.821-1.253.657-1.835-.573-3.07-1.146-3.703-1.718-.63.572-1.865 1.145-3.701 1.718-.527.164-1.088-.13-1.253-.657-.03-.096-.045-.197-.045-.298V11c0-.552.448-1 1-1 .101 0 .201.015.298.045 1.836.573 3.071 1.146 3.704 1.72.63-.574 1.865-1.147 3.7-1.72.097-.03.197-.045.298-.045z" transform="translate(16 3) translate(1216 76)"/>
                        </g>
                        <g>
                            <path fill="#FFF" d="M12 34c3.968 0 12-14.598 12-21.5C24 5.595 18.627 0 12 0S0 5.596 0 12.5C0 19.401 8.032 34 12 34z" transform="translate(16 3) translate(1194 190)"/>
                            <path fill="#EBEBEB" d="M12 34c3.968 0 12-14.598 12-21.5C24 5.595 18.627 0 12 0S0 5.596 0 12.5C0 19.401 8.032 34 12 34z" transform="translate(16 3) translate(1194 190)"/>
                            <path fill="#FFF" d="M16 10c.552 0 1 .448 1 1v3.335c0 .101-.015.202-.045.298-.165.527-.726.821-1.253.657-1.835-.573-3.07-1.146-3.703-1.718-.63.572-1.865 1.145-3.701 1.718-.527.164-1.088-.13-1.253-.657-.03-.096-.045-.197-.045-.298V11c0-.552.448-1 1-1 .101 0 .201.015.298.045 1.836.573 3.071 1.146 3.704 1.72.63-.574 1.865-1.147 3.7-1.72.097-.03.197-.045.298-.045z" transform="translate(16 3) translate(1194 190)"/>
                        </g>
                        <g>
                            <path fill="#FFF" d="M12 34c3.968 0 12-14.598 12-21.5C24 5.595 18.627 0 12 0S0 5.596 0 12.5C0 19.401 8.032 34 12 34z" transform="translate(16 3) translate(1284 238)"/>
                            <path fill="#EBEBEB" d="M12 34c3.968 0 12-14.598 12-21.5C24 5.595 18.627 0 12 0S0 5.596 0 12.5C0 19.401 8.032 34 12 34z" transform="translate(16 3) translate(1284 238)"/>
                            <path fill="#FFF" d="M16 10c.552 0 1 .448 1 1v3.335c0 .101-.015.202-.045.298-.165.527-.726.821-1.253.657-1.835-.573-3.07-1.146-3.703-1.718-.63.572-1.865 1.145-3.701 1.718-.527.164-1.088-.13-1.253-.657-.03-.096-.045-.197-.045-.298V11c0-.552.448-1 1-1 .101 0 .201.015.298.045 1.836.573 3.071 1.146 3.704 1.72.63-.574 1.865-1.147 3.7-1.72.097-.03.197-.045.298-.045z" transform="translate(16 3) translate(1284 238)"/>
                        </g>
                        <g>
                            <path fill="#FFF" d="M12 34c3.968 0 12-14.598 12-21.5C24 5.595 18.627 0 12 0S0 5.596 0 12.5C0 19.401 8.032 34 12 34z" transform="translate(16 3) translate(1370 282)"/>
                            <path fill="#EBEBEB" d="M12 34c3.968 0 12-14.598 12-21.5C24 5.595 18.627 0 12 0S0 5.596 0 12.5C0 19.401 8.032 34 12 34z" transform="translate(16 3) translate(1370 282)"/>
                            <path fill="#FFF" d="M16 10c.552 0 1 .448 1 1v3.335c0 .101-.015.202-.045.298-.165.527-.726.821-1.253.657-1.835-.573-3.07-1.146-3.703-1.718-.63.572-1.865 1.145-3.701 1.718-.527.164-1.088-.13-1.253-.657-.03-.096-.045-.197-.045-.298V11c0-.552.448-1 1-1 .101 0 .201.015.298.045 1.836.573 3.071 1.146 3.704 1.72.63-.574 1.865-1.147 3.7-1.72.097-.03.197-.045.298-.045z" transform="translate(16 3) translate(1370 282)"/>
                        </g>
                        <g>
                            <path fill="#FFF" d="M12 34c3.968 0 12-14.598 12-21.5C24 5.595 18.627 0 12 0S0 5.596 0 12.5C0 19.401 8.032 34 12 34z" transform="translate(16 3) translate(1308 114)"/>
                            <path fill="#EBEBEB" d="M12 34c3.968 0 12-14.598 12-21.5C24 5.595 18.627 0 12 0S0 5.596 0 12.5C0 19.401 8.032 34 12 34z" transform="translate(16 3) translate(1308 114)"/>
                            <path fill="#FFF" d="M16 10c.552 0 1 .448 1 1v3.335c0 .101-.015.202-.045.298-.165.527-.726.821-1.253.657-1.835-.573-3.07-1.146-3.703-1.718-.63.572-1.865 1.145-3.701 1.718-.527.164-1.088-.13-1.253-.657-.03-.096-.045-.197-.045-.298V11c0-.552.448-1 1-1 .101 0 .201.015.298.045 1.836.573 3.071 1.146 3.704 1.72.63-.574 1.865-1.147 3.7-1.72.097-.03.197-.045.298-.045z" transform="translate(16 3) translate(1308 114)"/>
                        </g>
                        <g>
                            <path fill="#FFF" d="M12 34c3.968 0 12-14.598 12-21.5C24 5.595 18.627 0 12 0S0 5.596 0 12.5C0 19.401 8.032 34 12 34z" transform="translate(16 3) translate(1284 37)"/>
                            <path fill="#EBEBEB" d="M12 34c3.968 0 12-14.598 12-21.5C24 5.595 18.627 0 12 0S0 5.596 0 12.5C0 19.401 8.032 34 12 34z" transform="translate(16 3) translate(1284 37)"/>
                            <path fill="#FFF" d="M16 10c.552 0 1 .448 1 1v3.335c0 .101-.015.202-.045.298-.165.527-.726.821-1.253.657-1.835-.573-3.07-1.146-3.703-1.718-.63.572-1.865 1.145-3.701 1.718-.527.164-1.088-.13-1.253-.657-.03-.096-.045-.197-.045-.298V11c0-.552.448-1 1-1 .101 0 .201.015.298.045 1.836.573 3.071 1.146 3.704 1.72.63-.574 1.865-1.147 3.7-1.72.097-.03.197-.045.298-.045z" transform="translate(16 3) translate(1284 37)"/>
                        </g>
                        <g>
                            <path fill="#FFF" d="M12 34c3.968 0 12-14.598 12-21.5C24 5.595 18.627 0 12 0S0 5.596 0 12.5C0 19.401 8.032 34 12 34z" transform="translate(16 3) translate(1352 178)"/>
                            <path fill="#EBEBEB" d="M12 34c3.968 0 12-14.598 12-21.5C24 5.595 18.627 0 12 0S0 5.596 0 12.5C0 19.401 8.032 34 12 34z" transform="translate(16 3) translate(1352 178)"/>
                            <path fill="#FFF" d="M16 10c.552 0 1 .448 1 1v3.335c0 .101-.015.202-.045.298-.165.527-.726.821-1.253.657-1.835-.573-3.07-1.146-3.703-1.718-.63.572-1.865 1.145-3.701 1.718-.527.164-1.088-.13-1.253-.657-.03-.096-.045-.197-.045-.298V11c0-.552.448-1 1-1 .101 0 .201.015.298.045 1.836.573 3.071 1.146 3.704 1.72.63-.574 1.865-1.147 3.7-1.72.097-.03.197-.045.298-.045z" transform="translate(16 3) translate(1352 178)"/>
                        </g>
                        <g>
                            <path fill="#FFF" d="M12 34c3.968 0 12-14.598 12-21.5C24 5.595 18.627 0 12 0S0 5.596 0 12.5C0 19.401 8.032 34 12 34z" transform="translate(16 3) translate(1110 248)"/>
                            <path fill="#EBEBEB" d="M12 34c3.968 0 12-14.598 12-21.5C24 5.595 18.627 0 12 0S0 5.596 0 12.5C0 19.401 8.032 34 12 34z" transform="translate(16 3) translate(1110 248)"/>
                            <path fill="#FFF" d="M16 10c.552 0 1 .448 1 1v3.335c0 .101-.015.202-.045.298-.165.527-.726.821-1.253.657-1.835-.573-3.07-1.146-3.703-1.718-.63.572-1.865 1.145-3.701 1.718-.527.164-1.088-.13-1.253-.657-.03-.096-.045-.197-.045-.298V11c0-.552.448-1 1-1 .101 0 .201.015.298.045 1.836.573 3.071 1.146 3.704 1.72.63-.574 1.865-1.147 3.7-1.72.097-.03.197-.045.298-.045z" transform="translate(16 3) translate(1110 248)"/>
                        </g>
                        <g>
                            <path fill="#FFF" d="M12 34c3.968 0 12-14.598 12-21.5C24 5.595 18.627 0 12 0S0 5.596 0 12.5C0 19.401 8.032 34 12 34z" transform="translate(16 3) translate(1251 355)"/>
                            <path fill="#EBEBEB" d="M12 34c3.968 0 12-14.598 12-21.5C24 5.595 18.627 0 12 0S0 5.596 0 12.5C0 19.401 8.032 34 12 34z" transform="translate(16 3) translate(1251 355)"/>
                            <path fill="#FFF" d="M16 10c.552 0 1 .448 1 1v3.335c0 .101-.015.202-.045.298-.165.527-.726.821-1.253.657-1.835-.573-3.07-1.146-3.703-1.718-.63.572-1.865 1.145-3.701 1.718-.527.164-1.088-.13-1.253-.657-.03-.096-.045-.197-.045-.298V11c0-.552.448-1 1-1 .101 0 .201.015.298.045 1.836.573 3.071 1.146 3.704 1.72.63-.574 1.865-1.147 3.7-1.72.097-.03.197-.045.298-.045z" transform="translate(16 3) translate(1251 355)"/>
                        </g>
                        <g>
                            <path fill="#FFF" d="M12 34c3.968 0 12-14.598 12-21.5C24 5.595 18.627 0 12 0S0 5.596 0 12.5C0 19.401 8.032 34 12 34z" transform="translate(16 3) translate(1211 295)"/>
                            <path fill="#EBEBEB" d="M12 34c3.968 0 12-14.598 12-21.5C24 5.595 18.627 0 12 0S0 5.596 0 12.5C0 19.401 8.032 34 12 34z" transform="translate(16 3) translate(1211 295)"/>
                            <path fill="#FFF" d="M16 10c.552 0 1 .448 1 1v3.335c0 .101-.015.202-.045.298-.165.527-.726.821-1.253.657-1.835-.573-3.07-1.146-3.703-1.718-.63.572-1.865 1.145-3.701 1.718-.527.164-1.088-.13-1.253-.657-.03-.096-.045-.197-.045-.298V11c0-.552.448-1 1-1 .101 0 .201.015.298.045 1.836.573 3.071 1.146 3.704 1.72.63-.574 1.865-1.147 3.7-1.72.097-.03.197-.045.298-.045z" transform="translate(16 3) translate(1211 295)"/>
                        </g>
                        <g>
                            <path fill="#FFF" d="M12 34c3.968 0 12-14.598 12-21.5C24 5.595 18.627 0 12 0S0 5.596 0 12.5C0 19.401 8.032 34 12 34z" transform="translate(16 3) translate(666 244)"/>
                            <path fill="#EBEBEB" d="M12 34c3.968 0 12-14.598 12-21.5C24 5.595 18.627 0 12 0S0 5.596 0 12.5C0 19.401 8.032 34 12 34z" transform="translate(16 3) translate(666 244)"/>
                            <path fill="#FFF" d="M16 10c.552 0 1 .448 1 1v3.335c0 .101-.015.202-.045.298-.165.527-.726.821-1.253.657-1.835-.573-3.07-1.146-3.703-1.718-.63.572-1.865 1.145-3.701 1.718-.527.164-1.088-.13-1.253-.657-.03-.096-.045-.197-.045-.298V11c0-.552.448-1 1-1 .101 0 .201.015.298.045 1.836.573 3.071 1.146 3.704 1.72.63-.574 1.865-1.147 3.7-1.72.097-.03.197-.045.298-.045z" transform="translate(16 3) translate(666 244)"/>
                        </g>
                    </g>
                </g>
                <g mask="url(#8dvuslpbqb)">
                    <g>
                        <g fill="#E83C3A" fill-opacity=".3" transform="translate(624 80) translate(0 11)">
                            <ellipse cx="96" cy="45" filter="url(#ai2isgmhkc)" opacity=".2" rx="96" ry="45"/>
                            <ellipse cx="96" cy="45.5" filter="url(#292lkxg7yd)" opacity=".4" rx="48" ry="22.5"/>
                            <ellipse cx="96" cy="45" filter="url(#mjmx6sc4qe)" rx="15" ry="7"/>
                        </g>
                        <path fill="#E83C3A" d="M96 56c6.613 0 20-24.043 20-35.413C116 9.217 107.046 0 96 0S76 9.217 76 20.587 89.387 56 96 56z" transform="translate(624 80)"/>
                        <path fill="#FFF" d="M103 17.607c1.105 0 2 .896 2 2v4.786c0 .188-.027.376-.079.556-.307 1.061-1.417 1.672-2.478 1.365-3.143-.911-5.291-1.822-6.443-2.733-1.15.91-3.299 1.822-6.443 2.733-1.061.307-2.17-.304-2.478-1.365-.052-.18-.079-.368-.079-.556v-4.786c0-1.104.895-2 2-2 .188 0 .376.027.557.08 3.144.91 5.292 1.822 6.444 2.733 1.15-.912 3.299-1.823 6.442-2.734.181-.052.369-.079.557-.079z" transform="translate(624 80)"/>
                    </g>
                </g>
            </g>
        </g>
    </g>
</svg>
