<?xml version="1.0" encoding="utf-8"?>
<svg width="15px" height="15px" viewBox="0 0 15 15" version="1.1" xmlns:xlink="http://www.w3.org/1999/xlink" xmlns="http://www.w3.org/2000/svg">
  <desc>Created with Lunacy</desc>
  <g id="Open-Hours">
    <path d="M7.5 0C11.6421 0 15 3.35786 15 7.5C15 11.6421 11.6421 15 7.5 15C3.35786 15 0 11.6421 0 7.5C0 7.01269 0.395043 6.61765 0.882353 6.61765C1.36966 6.61765 1.76471 7.01269 1.76471 7.5C1.76471 10.6675 4.33248 13.2353 7.5 13.2353C10.6675 13.2353 13.2353 10.6675 13.2353 7.5C13.2353 4.33248 10.6675 1.76471 7.5 1.76471C7.01269 1.76471 6.61765 1.36966 6.61765 0.882353C6.61765 0.395043 7.01269 0 7.5 0Z" transform="matrix(1.1924881E-08 1 -1 1.1924881E-08 15 -8.881784E-16)" id="Path" fill="#222F5A" stroke="none" />
    <path d="M1 0C1.51284 0 1.93551 0.38604 1.99327 0.883379L2 1L2 2.95935L2.99365 2.95935C3.54594 2.95935 3.99365 3.40707 3.99365 3.95935C3.99365 4.47219 3.60761 4.89486 3.11027 4.95262L2.99365 4.95935L2 4.95935C0.945638 4.95935 0.0818349 4.14347 0.00548574 3.10861L0 2.95935L0 1C0 0.447715 0.447715 0 1 0Z" transform="translate(6 4.0406494)" id="Path-2-Copy-2" fill="#222F5A" stroke="none" />
  </g>
</svg>