<?xml version="1.0" encoding="utf-8"?>
<svg width="18px" height="18px" viewBox="0 0 18 18" version="1.1" xmlns:xlink="http://www.w3.org/1999/xlink" xmlns="http://www.w3.org/2000/svg">
  <desc>Created with Lunacy</desc>
  <g id="Order-Copy">
    <path d="M9.73127 0.138484L16.7313 2.88833C17.4967 3.18901 18 3.92752 18 4.74985L18 13.0137C18 13.841 17.4906 14.5829 16.7185 14.8802L10 17.4663L10 17.8512L8 17.8512L8 17.4663L1.28153 14.8802C0.509416 14.5829 0 13.841 0 13.0137L0 4.74985C0 3.92752 0.503342 3.18901 1.26873 2.88833L8.26873 0.138484C8.73876 -0.0461612 9.26124 -0.0461612 9.73127 0.138484ZM16 13.0137L10 15.3232L10 8.8097L16 6.50013L16 13.0137ZM15.4949 4.55144L9.51964 6.85121L8.48036 6.85121L2.50507 4.55144L9 2L15.4949 4.55144ZM2 6.50013L2 13.0137L8 15.3232L8 8.8097L2 6.50013Z" id="Combined-Shape" fill="#222F5A" fill-rule="evenodd" stroke="none" />
  </g>
</svg>