<?xml version="1.0" encoding="utf-8"?>
<svg width="18px" height="18px" viewBox="0 0 18 18" version="1.1" xmlns:xlink="http://www.w3.org/1999/xlink" xmlns="http://www.w3.org/2000/svg">
  <desc>Created with Lunacy</desc>
  <defs>
    <path d="M0 0L17.8421 0L17.8421 17.6986L0 17.6986L0 0Z" transform="translate(0 0.12318416)" id="path_1" />
    <clipPath id="mask_1">
      <use xlink:href="#path_1" />
    </clipPath>
  </defs>
  <g id="Group-6">
    <g id="Group-3">
      <path d="M0 0L17.8421 0L17.8421 17.6986L0 17.6986L0 0Z" transform="translate(0 0.12318416)" id="Clip-2" fill="none" stroke="none" />
      <g clip-path="url(#mask_1)">
        <path d="M15.2149 2.59004C16.0294 3.38685 16.6707 4.32909 17.1396 5.41319C17.6078 6.49711 17.8421 7.64768 17.8421 8.86634L17.8421 17.4653L14.3888 17.4653L14.3888 15.8566C13.6289 16.4267 12.7904 16.8762 11.8733 17.2039C10.9555 17.5338 9.97254 17.6986 8.92062 17.6986C7.69176 17.6986 6.53454 17.4653 5.44914 17.0014C4.36662 16.5368 3.4218 15.9058 2.61684 15.1086C1.81206 14.3116 1.1736 13.3772 0.7056 12.3026C0.23454 11.2288 0 10.083 0 8.86634C0 7.64768 0.23364 6.49711 0.70362 5.41319C1.17162 4.32909 1.80792 3.38685 2.61108 2.59004C3.41514 1.79305 4.3569 1.16198 5.4396 0.697545C6.52194 0.233109 7.67736 0 8.90424 0C10.1333 0 11.2858 0.233109 12.3691 0.697545C13.4527 1.16198 14.4002 1.79305 15.2149 2.59004ZM12.778 12.674C13.2698 12.1849 13.6613 11.6109 13.9523 10.9542C14.2423 10.2974 14.3888 9.60166 14.3888 8.86634C14.3888 8.10909 14.2423 7.40139 13.9523 6.7443C13.6613 6.08774 13.2698 5.51353 12.778 5.0245C12.2868 4.53475 11.7117 4.14321 11.0504 3.85503C10.3918 3.56543 9.68076 3.42018 8.92062 3.42018C8.16066 3.42018 7.45146 3.56543 6.79194 3.85503C6.13242 4.14321 5.55552 4.53475 5.0652 5.0245C4.57344 5.51353 4.18194 6.08774 3.89178 6.7443C3.59892 7.40139 3.45546 8.10909 3.45546 8.86634C3.45546 9.60166 3.59892 10.2974 3.89178 10.9542C4.18194 11.6109 4.57344 12.1849 5.0652 12.674C5.55552 13.165 6.13242 13.5552 6.79194 13.8434C7.45146 14.1336 8.16066 14.2774 8.92062 14.2774C9.68076 14.2774 10.3918 14.1336 11.0504 13.8434C11.7117 13.5552 12.2868 13.165 12.778 12.674Z" transform="translate(-7.2E-05 0.12318416)" id="Fill-1" fill="#212F59" fill-rule="evenodd" stroke="none" />
      </g>
    </g>
    <path d="M6.3009 2.9326C6.3009 2.55371 6.29892 0.434343 6.29892 0.0413731L6.29802 0.0422642L6.29802 0.0185612C6.29802 0.0185612 4.42584 -0.182468 3.15198 0.741413C3.15198 0.741413 3.14892 0.743551 3.14802 0.743551C1.87308 -0.183181 0.00108 0.0185612 0.00108 0.0185612L0.00108 0.0413731L0 0.0413731C0 0.409928 0.00108 2.40935 0.00108 2.89197L0.00108 2.9326C0.00108 2.9326 1.87308 3.13345 3.14802 2.2085L3.15198 2.2085C4.42584 3.13345 6.3009 2.9326 6.3009 2.9326" transform="translate(5.7265625 5.9982147)" id="Fill-4" fill="#212F59" stroke="none" />
  </g>
</svg>