<svg xmlns="http://www.w3.org/2000/svg" width="50" height="50" viewBox="0 0 50 50">
    <g fill="none" fill-rule="evenodd">
        <g>
            <g>
                <path fill="#068DC9" d="M5 0h25c11.046 0 20 8.954 20 20v25c0 2.761-2.239 5-5 5H20C8.954 50 0 41.046 0 30V5c0-2.761 2.239-5 5-5z" transform="translate(-809 -770) translate(809 770)"/>
                <path fill="#FFF" d="M28.789 19.578l5.764 11.528c.494.988.093 2.189-.895 2.683-.277.139-.584.211-.894.211H21.236c-1.105 0-2-.895-2-2 0-.31.072-.617.211-.894l5.764-11.528c.494-.988 1.695-1.389 2.683-.895.387.194.701.508.895.895z" transform="translate(-809 -770) translate(809 770) rotate(90 27 25)"/>
            </g>
        </g>
    </g>
</svg>
