<?xml version="1.0" encoding="utf-8"?>
<svg width="58px" height="51px" viewBox="0 0 58 51" version="1.1" xmlns:xlink="http://www.w3.org/1999/xlink" xmlns="http://www.w3.org/2000/svg">
  <desc>Created with Lunacy</desc>
  <path d="M1.98816 51L21.8946 51C22.9921 51 23.8828 50.1119 23.8828 49.0176L23.8828 29.1689C23.8828 28.0747 22.9921 27.1865 21.8946 27.1865L13.3604 27.1865C12.7958 27.1865 12.3335 26.7147 12.3654 26.1517C12.6059 21.9421 13.6825 18.5295 15.5961 15.9157C17.3616 13.5041 20.1073 11.5455 23.8341 10.0399C24.9007 9.60969 25.3997 8.38556 24.9067 7.34877L21.9503 1.13101C21.495 0.174507 20.3677 -0.248733 19.3836 0.148736C15.0792 1.88333 11.4796 4.14523 8.58388 6.93346C5.29844 10.0964 3.04586 13.6696 1.82712 17.6532C0.609371 21.6359 0 27.0736 0 33.9663L0 49.0176C0 50.1119 0.889701 51 1.98816 51ZM34.8912 51.0001L54.7967 51.0001C55.8951 51.0001 56.7848 50.112 56.7848 49.0177L56.7848 29.1691C56.7848 28.0748 55.8951 27.1867 54.7967 27.1867L46.2635 27.1867C45.6979 27.1867 45.2356 26.7149 45.2684 26.1519C45.508 21.9423 46.5846 18.5296 48.4982 15.9158C50.2637 13.5042 53.0103 11.5456 56.7361 10.04C57.8028 9.60982 58.3018 8.3857 57.8097 7.34891L54.8563 1.13808C54.4 0.179598 53.2678 -0.244634 52.2827 0.157791C48.029 1.89139 44.4443 4.14933 41.5287 6.9336C38.2144 10.0965 35.9479 13.6559 34.7292 17.6107C33.5115 21.5656 32.9031 27.0172 32.9031 33.9665L32.9031 49.0177C32.9031 50.112 33.7928 51.0001 34.8912 51.0001Z" transform="matrix(-1 -8.742278E-08 8.742278E-08 -1 58 51)" id="Fill-1-Copy" fill="#222F5A" fill-opacity="0.2" fill-rule="evenodd" stroke="none" />
</svg>