<?xml version="1.0" encoding="utf-8"?>
<svg width="388px" height="450px" viewBox="0 0 388 450" version="1.1" xmlns:xlink="http://www.w3.org/1999/xlink" xmlns="http://www.w3.org/2000/svg">
  <desc>Created with Lunacy</desc>
  <path d="M224.999 0L225.001 0Q230.524 0 236.041 0.271021Q241.558 0.542042 247.055 1.08343Q252.552 1.62482 258.015 2.43527Q263.479 3.24573 268.896 4.32329Q274.313 5.40086 279.671 6.74294Q285.029 8.08502 290.315 9.68838Q295.6 11.2917 300.801 13.1525Q306.001 15.0133 311.104 17.127Q316.207 19.2407 321.2 21.6023Q326.194 23.9639 331.065 26.5676Q335.936 29.1713 340.674 32.0109Q345.411 34.8505 350.004 37.9192Q354.596 40.9878 359.033 44.2781Q363.469 47.5684 367.739 51.0724Q372.009 54.5764 376.101 58.2857Q380.194 61.995 384.099 65.9007Q388.005 69.8063 391.714 73.8989Q395.424 77.9915 398.928 82.2611Q402.432 86.5308 405.722 90.9672Q409.012 95.4037 412.081 99.9962Q415.149 104.589 417.989 109.326Q420.829 114.064 423.432 118.935Q426.036 123.806 428.398 128.8Q430.759 133.793 432.873 138.896Q434.987 143.999 436.847 149.199Q438.708 154.4 440.312 159.685Q441.915 164.971 443.257 170.329Q444.599 175.687 445.677 181.104Q446.754 186.521 447.565 191.985Q448.375 197.448 448.917 202.945Q449.458 208.442 449.729 213.959Q450 219.476 450 224.999L450 420.001Q450 420.737 449.964 421.473Q449.928 422.209 449.856 422.941Q449.783 423.674 449.675 424.403Q449.567 425.131 449.424 425.853Q449.28 426.576 449.101 427.29Q448.922 428.005 448.708 428.709Q448.494 429.414 448.246 430.107Q447.998 430.801 447.716 431.481Q447.435 432.161 447.12 432.827Q446.805 433.493 446.458 434.142Q446.111 434.792 445.732 435.424Q445.353 436.055 444.944 436.668Q444.535 437.28 444.096 437.871Q443.658 438.463 443.191 439.032Q442.723 439.601 442.229 440.147Q441.734 440.693 441.213 441.213Q440.693 441.734 440.147 442.229Q439.601 442.723 439.032 443.191Q438.463 443.658 437.871 444.096Q437.28 444.535 436.668 444.944Q436.055 445.353 435.424 445.732Q434.792 446.111 434.142 446.458Q433.493 446.805 432.827 447.12Q432.161 447.435 431.481 447.716Q430.801 447.998 430.107 448.246Q429.414 448.494 428.709 448.708Q428.005 448.922 427.29 449.101Q426.576 449.28 425.853 449.424Q425.131 449.567 424.403 449.675Q423.674 449.783 422.941 449.856Q422.208 449.928 421.473 449.964Q420.737 450 420.001 450L224.999 450Q219.476 450 213.959 449.729Q208.442 449.458 202.945 448.917Q197.448 448.375 191.985 447.565Q186.521 446.754 181.104 445.677Q175.687 444.599 170.329 443.257Q164.971 441.915 159.685 440.312Q154.4 438.708 149.199 436.847Q143.999 434.987 138.896 432.873Q133.793 430.759 128.8 428.398Q123.806 426.036 118.935 423.432Q114.064 420.829 109.326 417.989Q104.589 415.149 99.9962 412.081Q95.4037 409.012 90.9672 405.722Q86.5308 402.432 82.2611 398.928Q77.9915 395.424 73.8989 391.714Q69.8063 388.005 65.9007 384.099Q61.995 380.194 58.2857 376.101Q54.5764 372.009 51.0724 367.739Q47.5684 363.469 44.2781 359.033Q40.9878 354.596 37.9192 350.004Q34.8505 345.411 32.0109 340.674Q29.1713 335.936 26.5676 331.065Q23.9639 326.194 21.6023 321.2Q19.2407 316.207 17.127 311.104Q15.0133 306.001 13.1525 300.801Q11.2917 295.6 9.68838 290.315Q8.08502 285.029 6.74294 279.671Q5.40086 274.313 4.32329 268.896Q3.24573 263.479 2.43527 258.015Q1.62482 252.552 1.08343 247.055Q0.542042 241.558 0.271021 236.041Q0 230.524 0 225.001L0 224.999Q0 219.476 0.271021 213.959Q0.542042 208.442 1.08343 202.945Q1.62482 197.448 2.43527 191.985Q3.24573 186.521 4.32329 181.104Q5.40086 175.687 6.74294 170.329Q8.08502 164.971 9.68838 159.685Q11.2917 154.4 13.1525 149.199Q15.0133 143.999 17.127 138.896Q19.2407 133.793 21.6023 128.8Q23.9639 123.806 26.5676 118.935Q29.1713 114.064 32.0109 109.326Q34.8505 104.589 37.9192 99.9962Q40.9878 95.4037 44.2781 90.9672Q47.5684 86.5308 51.0724 82.2611Q54.5764 77.9915 58.2857 73.8989Q61.995 69.8063 65.9007 65.9007Q69.8063 61.995 73.8989 58.2857Q77.9915 54.5764 82.2611 51.0724Q86.5308 47.5684 90.9672 44.2781Q95.4037 40.9878 99.9962 37.9192Q104.589 34.8505 109.326 32.0109Q114.064 29.1713 118.935 26.5676Q123.806 23.9639 128.8 21.6023Q133.793 19.2407 138.896 17.127Q143.999 15.0133 149.199 13.1525Q154.4 11.2917 159.685 9.68838Q164.971 8.08502 170.329 6.74294Q175.687 5.40086 181.104 4.32329Q186.521 3.24573 191.985 2.43527Q197.448 1.62482 202.945 1.08343Q208.442 0.542042 213.959 0.271021Q219.476 0 224.999 0Z" transform="matrix(-4.371139E-08 -1 1 -4.371139E-08 -62 450)" id="Rectangle" fill="#000000" fill-opacity="0.03137255" stroke="none" />
</svg>