<?xml version="1.0" encoding="UTF-8"?>
<svg width="31px" height="28px" viewBox="0 0 31 28" version="1.1" xmlns="http://www.w3.org/2000/svg" xmlns:xlink="http://www.w3.org/1999/xlink">
    <title>Alfred智能櫃 – We Deliver, You Collect.</title>
    <g id="Welcome" stroke="none" stroke-width="1" fill="none" fill-rule="evenodd">
        <g id="200903_Alfred_About_DesktopHD" transform="translate(-1141.000000, -1116.000000)" fill="#000000" fill-rule="nonzero">
            <g id="Group-17" transform="translate(916.000000, 1083.000000)">
                <path d="M229.435403,46.3221665 C229.870543,51.4604239 234.348006,55.5 239.807325,55.5 L240.169877,55.493 L238.452341,53.3488813 C238.107012,52.917875 238.176467,52.288531 238.607473,51.9432021 C238.611232,51.9401907 238.615012,51.9372065 238.618814,51.9342497 L239.04206,51.6050646 C239.473533,51.2694821 240.094511,51.3425267 240.436336,51.7690708 L243.815563,55.9858224 L242.436877,57.716 L242.448992,57.7420854 L242.410877,57.749 L240.436398,60.2290309 C240.095875,60.6566252 239.47511,60.7315639 239.042614,60.3972884 L238.618159,60.069228 C238.181181,59.7314881 238.100732,59.1034548 238.438472,58.6664762 C238.441382,58.6627111 238.444319,58.6589667 238.447282,58.6552435 L238.989225,57.9756805 C232.481181,57.5875947 227.269071,52.601158 226.829168,46.3568248 L229.435403,46.3221665 Z M250.026355,38.1394952 L254.709434,40.1565641 C255.360208,40.4368614 255.674038,41.18059 255.420786,41.8423575 C255.180557,42.4700962 254.47693,42.7842347 253.849191,42.5440055 C253.833655,42.53806 253.818242,42.5317966 253.802963,42.5252192 L252.255259,41.8595121 C252.619612,43.0113819 252.815563,44.2337016 252.815563,45.5 C252.815563,49.8126442 250.542761,53.6151874 247.085359,55.8619459 L246.037892,53.5103792 C248.573154,51.6865685 250.213915,48.7774081 250.213915,45.5 C250.213915,44.5895307 250.087291,43.7074804 249.850043,42.8692232 L249.176092,43.8463004 C248.795228,44.399887 248.037706,44.5399063 247.484119,44.1590421 C247.470367,44.1495809 247.456812,44.1398377 247.443461,44.1298186 C246.876784,43.7045639 246.746398,42.9080283 247.147913,42.3242899 L250.026355,38.1394952 Z M239.807325,33 C243.166923,33 246.229056,34.2238364 248.537252,36.2328717 L246.547048,37.8802718 C244.731265,36.3957922 242.37816,35.5 239.807325,35.5 C235.969829,35.5 232.617472,37.4959739 230.813213,40.4664929 L232.989266,39.7044502 C233.002213,39.6999162 233.015253,39.6956492 233.028376,39.6916517 C233.556693,39.5307201 234.11544,39.8285453 234.276372,40.3568629 L234.276372,40.3568629 L234.432057,40.8679589 C234.58832,41.380948 234.312122,41.9258778 233.806005,42.1031395 L233.806005,42.1031395 L228.702619,43.8905428 L225.966561,39.2496194 C225.694227,38.7876838 225.834725,38.1931634 226.285033,37.902004 L226.285033,37.902004 L226.733348,37.6121326 C226.744911,37.6046563 226.756627,37.5974196 226.768489,37.5904271 C227.24426,37.3099623 227.85731,37.4682891 228.137775,37.94406 L228.137775,37.94406 L228.728536,38.9457838 C231.019281,35.3779308 235.124314,33 239.807325,33 Z" id="Combined-Shape"></path>
            </g>
        </g>
    </g>
</svg>