<?xml version="1.0" encoding="UTF-8"?>
<svg width="18px" height="30px" viewBox="0 0 18 30" version="1.1" xmlns="http://www.w3.org/2000/svg" xmlns:xlink="http://www.w3.org/1999/xlink">
    <title>Alfred智能櫃 – We Deliver, You Collect.</title>
    <g id="Welcome" stroke="none" stroke-width="1" fill="none" fill-rule="evenodd">
        <g id="200903_Alfred_About_DesktopHD" transform="translate(-832.000000, -1115.000000)">
            <g id="Group-18" transform="translate(545.000000, 1083.000000)">
                <g id="Benefit-2" transform="translate(39.000000, 30.000000)">
                    <g id="Group-16" transform="translate(248.000000, 2.000000)">
                        <path d="M9.02434589,2.715901 C9.4105762,2.71590103 9.79044258,2.86748567 10.07257,3.15858318 C14.3582263,7.65695716 16.5,11.1235348 16.5,14 C16.5,16.4316525 15.7416593,18.6422747 14.3318265,20.2087557 C13.0466895,21.6366856 11.2193579,22.5 9,22.5 C6.78064211,22.5 4.95331051,21.6366856 3.66817354,20.2087557 C2.25834067,18.6422747 1.5,16.4316525 1.5,14 C1.5,11.0431516 3.75674644,7.46404687 7.91375263,3.17353409 C8.23461955,2.87262656 8.63014169,2.71590097 9.02434589,2.715901 Z" id="Oval" stroke="#000000" stroke-width="3"></path>
                        <rect id="Rectangle" fill="#000000" x="7.5" y="12" width="3" height="18" rx="1.5"></rect>
                    </g>
                </g>
            </g>
        </g>
    </g>
</svg>