<svg aria-hidden="true" style="position: absolute; width: 0; height: 0; overflow: hidden;" version="1.1" xmlns="http://www.w3.org/2000/svg" xmlns:xlink="http://www.w3.org/1999/xlink">
<defs>
<symbol id="icon-chevron-down" viewBox="0 0 24 24">
<path d="M5.293 9.707l6 6c0.391 0.391 1.024 0.391 1.414 0l6-6c0.391-0.391 0.391-1.024 0-1.414s-1.024-0.391-1.414 0l-5.293 5.293-5.293-5.293c-0.391-0.391-1.024-0.391-1.414 0s-0.391 1.024 0 1.414z"></path>
</symbol>
<symbol id="icon-chevron-up" viewBox="0 0 24 24">
<path d="M18.707 14.293l-6-6c-0.391-0.391-1.024-0.391-1.414 0l-6 6c-0.391 0.391-0.391 1.024 0 1.414s1.024 0.391 1.414 0l5.293-5.293 5.293 5.293c0.391 0.391 1.024 0.391 1.414 0s0.391-1.024 0-1.414z"></path>
</symbol>
<symbol id="icon-copy" viewBox="0 0 24 24">
<path d="M11 8c-0.828 0-1.58 0.337-2.121 0.879s-0.879 1.293-0.879 2.121v9c0 0.828 0.337 1.58 0.879 2.121s1.293 0.879 2.121 0.879h9c0.828 0 1.58-0.337 2.121-0.879s0.879-1.293 0.879-2.121v-9c0-0.828-0.337-1.58-0.879-2.121s-1.293-0.879-2.121-0.879zM11 10h9c0.276 0 0.525 0.111 0.707 0.293s0.293 0.431 0.293 0.707v9c0 0.276-0.111 0.525-0.293 0.707s-0.431 0.293-0.707 0.293h-9c-0.276 0-0.525-0.111-0.707-0.293s-0.293-0.431-0.293-0.707v-9c0-0.276 0.111-0.525 0.293-0.707s0.431-0.293 0.707-0.293zM5 14h-1c-0.276 0-0.525-0.111-0.707-0.293s-0.293-0.431-0.293-0.707v-9c0-0.276 0.111-0.525 0.293-0.707s0.431-0.293 0.707-0.293h9c0.276 0 0.525 0.111 0.707 0.293s0.293 0.431 0.293 0.707v1c0 0.552 0.448 1 1 1s1-0.448 1-1v-1c0-0.828-0.337-1.58-0.879-2.121s-1.293-0.879-2.121-0.879h-9c-0.828 0-1.58 0.337-2.121 0.879s-0.879 1.293-0.879 2.121v9c0 0.828 0.337 1.58 0.879 2.121s1.293 0.879 2.121 0.879h1c0.552 0 1-0.448 1-1s-0.448-1-1-1z"></path>
</symbol>
<symbol id="icon-search" viewBox="0 0 24 24">
<path d="M16.041 15.856c-0.034 0.026-0.067 0.055-0.099 0.087s-0.060 0.064-0.087 0.099c-1.258 1.213-2.969 1.958-4.855 1.958-1.933 0-3.682-0.782-4.95-2.050s-2.050-3.017-2.050-4.95 0.782-3.682 2.050-4.95 3.017-2.050 4.95-2.050 3.682 0.782 4.95 2.050 2.050 3.017 2.050 4.95c0 1.886-0.745 3.597-1.959 4.856zM21.707 20.293l-3.675-3.675c1.231-1.54 1.968-3.493 1.968-5.618 0-2.485-1.008-4.736-2.636-6.364s-3.879-2.636-6.364-2.636-4.736 1.008-6.364 2.636-2.636 3.879-2.636 6.364 1.008 4.736 2.636 6.364 3.879 2.636 6.364 2.636c2.125 0 4.078-0.737 5.618-1.968l3.675 3.675c0.391 0.391 1.024 0.391 1.414 0s0.391-1.024 0-1.414z"></path>
</symbol>
</defs>
</svg>
